<svg width="80" height="50" viewBox="0 0 80 50" fill="none" xmlns="http://www.w3.org/2000/svg">
<path d="M20.4132 18.56C23.2452 18.56 25.4052 19.244 26.8932 20.612C28.4052 21.956 29.1612 23.996 29.1612 26.732V38H24.9132V35.66C24.3612 36.5 23.5692 37.148 22.5372 37.604C21.5292 38.036 20.3052 38.252 18.8652 38.252C17.4252 38.252 16.1652 38.012 15.0852 37.532C14.0052 37.028 13.1652 36.344 12.5652 35.48C11.9892 34.592 11.7012 33.596 11.7012 32.492C11.7012 30.764 12.3372 29.384 13.6092 28.352C14.9052 27.296 16.9332 26.768 19.6932 26.768H24.6612V26.48C24.6612 25.136 24.2532 24.104 23.4372 23.384C22.6452 22.664 21.4572 22.304 19.8732 22.304C18.7932 22.304 17.7252 22.472 16.6692 22.808C15.6372 23.144 14.7612 23.612 14.0412 24.212L12.2772 20.936C13.2852 20.168 14.4972 19.58 15.9132 19.172C17.3292 18.764 18.8292 18.56 20.4132 18.56ZM19.8012 34.976C20.9292 34.976 21.9252 34.724 22.7892 34.22C23.6772 33.692 24.3012 32.948 24.6612 31.988V29.756H20.0172C17.4252 29.756 16.1292 30.608 16.1292 32.312C16.1292 33.128 16.4532 33.776 17.1012 34.256C17.7492 34.736 18.6492 34.976 19.8012 34.976ZM59.2004 18.56C61.6244 18.56 63.5444 19.268 64.9604 20.684C66.3764 22.076 67.0844 24.176 67.0844 26.984V38H62.5844V27.56C62.5844 25.88 62.2124 24.62 61.4684 23.78C60.7244 22.916 59.6564 22.484 58.2644 22.484C56.7524 22.484 55.5404 22.988 54.6284 23.996C53.7164 24.98 53.2604 26.396 53.2604 28.244V38H48.7604V27.56C48.7604 25.88 48.3884 24.62 47.6444 23.78C46.9004 22.916 45.8324 22.484 44.4404 22.484C42.9044 22.484 41.6804 22.976 40.7684 23.96C39.8804 24.944 39.4364 26.372 39.4364 28.244V38H34.9364V18.776H39.2204V21.224C39.9404 20.36 40.8404 19.7 41.9204 19.244C43.0004 18.788 44.2004 18.56 45.5204 18.56C46.9604 18.56 48.2324 18.836 49.3364 19.388C50.4644 19.916 51.3524 20.708 52.0004 21.764C52.7924 20.756 53.8124 19.976 55.0604 19.424C56.3084 18.848 57.6884 18.56 59.2004 18.56Z" fill="white"/>
<rect x="0.25" y="0.25" width="79.5" height="49.5" stroke="white" stroke-width="0.5"/>
</svg>
