<svg width="100" height="50" viewBox="0 0 100 50" fill="none" xmlns="http://www.w3.org/2000/svg">
<path d="M28.0572 38.252C26.0652 38.252 24.2772 37.832 22.6932 36.992C21.1092 36.152 19.8732 34.988 18.9852 33.5C18.0972 31.988 17.6532 30.284 17.6532 28.388C17.6532 26.492 18.0972 24.8 18.9852 23.312C19.8732 21.824 21.0972 20.66 22.6572 19.82C24.2412 18.98 26.0412 18.56 28.0572 18.56C29.9532 18.56 31.6092 18.944 33.0252 19.712C34.4652 20.48 35.5452 21.584 36.2652 23.024L32.8092 25.04C32.2572 24.152 31.5612 23.492 30.7212 23.06C29.9052 22.604 29.0052 22.376 28.0212 22.376C26.3412 22.376 24.9492 22.928 23.8452 24.032C22.7412 25.112 22.1892 26.564 22.1892 28.388C22.1892 30.212 22.7292 31.676 23.8092 32.78C24.9132 33.86 26.3172 34.4 28.0212 34.4C29.0052 34.4 29.9052 34.184 30.7212 33.752C31.5612 33.296 32.2572 32.624 32.8092 31.736L36.2652 33.752C35.5212 35.192 34.4292 36.308 32.9892 37.1C31.5732 37.868 29.9292 38.252 28.0572 38.252ZM47.4991 18.56C50.3311 18.56 52.4911 19.244 53.9791 20.612C55.4911 21.956 56.2471 23.996 56.2471 26.732V38H51.9991V35.66C51.4471 36.5 50.6551 37.148 49.6231 37.604C48.6151 38.036 47.3911 38.252 45.9511 38.252C44.5111 38.252 43.2511 38.012 42.1711 37.532C41.0911 37.028 40.2511 36.344 39.6511 35.48C39.0751 34.592 38.7871 33.596 38.7871 32.492C38.7871 30.764 39.4231 29.384 40.6951 28.352C41.9911 27.296 44.0191 26.768 46.7791 26.768H51.7471V26.48C51.7471 25.136 51.3391 24.104 50.5231 23.384C49.7311 22.664 48.5431 22.304 46.9591 22.304C45.8791 22.304 44.8111 22.472 43.7551 22.808C42.7231 23.144 41.8471 23.612 41.1271 24.212L39.3631 20.936C40.3711 20.168 41.5831 19.58 42.9991 19.172C44.4151 18.764 45.9151 18.56 47.4991 18.56ZM46.8871 34.976C48.0151 34.976 49.0111 34.724 49.8751 34.22C50.7631 33.692 51.3871 32.948 51.7471 31.988V29.756H47.1031C44.5111 29.756 43.2151 30.608 43.2151 32.312C43.2151 33.128 43.5391 33.776 44.1871 34.256C44.8351 34.736 45.7351 34.976 46.8871 34.976ZM72.9303 18.56C75.3543 18.56 77.2983 19.268 78.7623 20.684C80.2263 22.1 80.9583 24.2 80.9583 26.984V38H76.4583V27.56C76.4583 25.88 76.0623 24.62 75.2703 23.78C74.4783 22.916 73.3503 22.484 71.8863 22.484C70.2303 22.484 68.9223 22.988 67.9623 23.996C67.0023 24.98 66.5223 26.408 66.5223 28.28V38H62.0223V18.776H66.3063V21.26C67.0503 20.372 67.9863 19.7 69.1143 19.244C70.2423 18.788 71.5143 18.56 72.9303 18.56Z" fill="white"/>
<rect x="0.25" y="0.25" width="99.5" height="49.5" stroke="white" stroke-width="0.5"/>
</svg>
