<svg width="80" height="50" viewBox="0 0 80 50" fill="none" xmlns="http://www.w3.org/2000/svg">
<path d="M37.821 11.288V38H33.501V35.516C32.757 36.428 31.833 37.112 30.729 37.568C29.649 38.024 28.449 38.252 27.129 38.252C25.281 38.252 23.613 37.844 22.125 37.028C20.661 36.212 19.509 35.06 18.669 33.572C17.829 32.06 17.409 30.332 17.409 28.388C17.409 26.444 17.829 24.728 18.669 23.24C19.509 21.752 20.661 20.6 22.125 19.784C23.613 18.968 25.281 18.56 27.129 18.56C28.401 18.56 29.565 18.776 30.621 19.208C31.677 19.64 32.577 20.288 33.321 21.152V11.288H37.821ZM27.669 34.4C28.749 34.4 29.721 34.16 30.585 33.68C31.449 33.176 32.133 32.468 32.637 31.556C33.141 30.644 33.393 29.588 33.393 28.388C33.393 27.188 33.141 26.132 32.637 25.22C32.133 24.308 31.449 23.612 30.585 23.132C29.721 22.628 28.749 22.376 27.669 22.376C26.589 22.376 25.617 22.628 24.753 23.132C23.889 23.612 23.205 24.308 22.701 25.22C22.197 26.132 21.945 27.188 21.945 28.388C21.945 29.588 22.197 30.644 22.701 31.556C23.205 32.468 23.889 33.176 24.753 33.68C25.617 34.16 26.589 34.4 27.669 34.4ZM52.3479 38.252C50.4039 38.252 48.6519 37.832 47.0919 36.992C45.5319 36.152 44.3079 34.988 43.4199 33.5C42.5559 31.988 42.1239 30.284 42.1239 28.388C42.1239 26.492 42.5559 24.8 43.4199 23.312C44.3079 21.824 45.5319 20.66 47.0919 19.82C48.6519 18.98 50.4039 18.56 52.3479 18.56C54.3159 18.56 56.0799 18.98 57.6399 19.82C59.1999 20.66 60.4119 21.824 61.2759 23.312C62.1639 24.8 62.6079 26.492 62.6079 28.388C62.6079 30.284 62.1639 31.988 61.2759 33.5C60.4119 34.988 59.1999 36.152 57.6399 36.992C56.0799 37.832 54.3159 38.252 52.3479 38.252ZM52.3479 34.4C54.0039 34.4 55.3719 33.848 56.4519 32.744C57.5319 31.64 58.0719 30.188 58.0719 28.388C58.0719 26.588 57.5319 25.136 56.4519 24.032C55.3719 22.928 54.0039 22.376 52.3479 22.376C50.6919 22.376 49.3239 22.928 48.2439 24.032C47.1879 25.136 46.6599 26.588 46.6599 28.388C46.6599 30.188 47.1879 31.64 48.2439 32.744C49.3239 33.848 50.6919 34.4 52.3479 34.4Z" fill="white"/>
<rect x="0.25" y="0.25" width="79.5" height="49.5" stroke="white" stroke-width="0.5"/>
</svg>
