<svg width="71" height="61" viewBox="0 0 71 61" fill="none" xmlns="http://www.w3.org/2000/svg">
<mask id="path-1-inside-1" fill="white">
<path fill-rule="evenodd" clip-rule="evenodd" d="M6.84373 33.5488C2.95952 30.0317 0.519531 24.9489 0.519531 19.2962C0.519531 8.68018 9.12549 0.0742188 19.7415 0.0742188C26.263 0.0742188 32.0259 3.32189 35.5012 8.28813C38.9766 3.32189 44.7395 0.0742188 51.261 0.0742188C61.877 0.0742188 70.483 8.68018 70.483 19.2962C70.483 24.9533 68.0392 30.0396 64.1497 33.557C64.1144 33.6007 64.0754 33.643 64.0325 33.6836L36.3332 59.8952C35.8658 60.3375 35.1342 60.3375 34.6668 59.8952L6.96754 33.6836C6.92195 33.6404 6.88074 33.5954 6.84373 33.5488Z"/>
</mask>
<path d="M6.84373 33.5488L10.7595 30.4397L10.5042 30.1181L10.1998 29.8425L6.84373 33.5488ZM35.5012 8.28813L31.4047 11.1549L35.5012 17.0089L39.5978 11.1549L35.5012 8.28813ZM64.1497 33.557L60.796 29.8486L60.506 30.1108L60.2603 30.4149L64.1497 33.557ZM64.0325 33.6836L60.5958 30.0518L60.5958 30.0519L64.0325 33.6836ZM36.3332 59.8952L39.7698 63.5269L39.7698 63.5269L36.3332 59.8952ZM34.6668 59.8952L38.1035 56.2635L38.1035 56.2634L34.6668 59.8952ZM6.96754 33.6836L3.53083 37.3153L3.53088 37.3153L6.96754 33.6836ZM-4.48047 19.2962C-4.48047 26.4195 -1.39917 32.8301 3.48767 37.2551L10.1998 29.8425C7.31821 27.2332 5.51953 23.4782 5.51953 19.2962H-4.48047ZM19.7415 -4.92578C6.36407 -4.92578 -4.48047 5.91876 -4.48047 19.2962H5.51953C5.51953 11.4416 11.8869 5.07422 19.7415 5.07422V-4.92578ZM39.5978 5.42139C35.227 -0.824479 27.9635 -4.92578 19.7415 -4.92578V5.07422C24.5624 5.07422 28.8248 7.46825 31.4047 11.1549L39.5978 5.42139ZM51.261 -4.92578C43.039 -4.92578 35.7755 -0.824481 31.4047 5.42139L39.5978 11.1549C42.1777 7.46825 46.4401 5.07422 51.261 5.07422V-4.92578ZM75.483 19.2962C75.483 5.91875 64.6384 -4.92578 51.261 -4.92578V5.07422C59.1156 5.07422 65.483 11.4416 65.483 19.2962H75.483ZM67.5034 37.2655C72.3968 32.8401 75.483 26.4251 75.483 19.2962H65.483C65.483 23.4815 63.6815 27.2391 60.796 29.8486L67.5034 37.2655ZM60.2603 30.4149C60.3664 30.2835 60.4789 30.1625 60.5958 30.0518L67.4691 37.3153C67.6718 37.1235 67.8623 36.9179 68.039 36.6992L60.2603 30.4149ZM60.5958 30.0519L32.8965 56.2634L39.7698 63.5269L67.4691 37.3153L60.5958 30.0519ZM32.8965 56.2634C34.357 54.8814 36.6429 54.8813 38.1035 56.2635L31.2301 63.5269C33.6255 65.7936 37.3745 65.7935 39.7698 63.5269L32.8965 56.2634ZM38.1035 56.2634L10.4042 30.0519L3.53088 37.3153L31.2302 63.5269L38.1035 56.2634ZM10.4042 30.0519C10.5284 30.1694 10.6476 30.2987 10.7595 30.4397L2.92794 36.6579C3.11391 36.8921 3.31553 37.1115 3.53083 37.3153L10.4042 30.0519Z" fill="#FF7800" mask="url(#path-1-inside-1)"/>
</svg>
