<svg width="276" height="276" viewBox="0 0 276 276" fill="none" xmlns="http://www.w3.org/2000/svg">
<g filter="url(#filter0_dd)">
<circle cx="126.406" cy="126.404" r="55" transform="rotate(-28.0579 126.406 126.404)" fill="url(#paint0_linear)"/>
</g>
<path d="M130.088 127.028L130.748 129.668L132.86 131.648L135.5 132.176L138.272 131.648L140.252 129.668L141.176 127.028L140.648 124.388L139.196 122.408L136.688 121.22M130.088 127.028V132.176M130.088 127.028V124.916M136.688 121.22L139.196 120.164L140.648 117.788L141.176 115.148L140.252 112.904L138.668 111.188L136.028 110H130.088M136.688 121.22H134.708M123.224 121.22L121.376 120.164L119.792 118.448L119.396 115.676L119.792 112.904L121.772 111.188L124.544 110H130.088M123.224 121.22L121.376 122.408L119.396 124.388L119 126.764L119.396 129.272L121.112 130.856L123.224 132.176M123.224 121.22H130.088M123.224 132.176L121.112 133.496L119.396 135.74L119 137.984L119.396 139.964L120.584 141.68L122.828 143H125.864L128.372 141.68L129.692 139.964L130.088 136.796V132.176M123.224 132.176H130.088M130.088 110V121.22M130.088 124.916L131.276 123.068L132.86 121.88L134.708 121.22M130.088 124.916V121.22M134.708 121.22H130.088" stroke="#FF7800" stroke-width="1.848"/>
<defs>
<filter id="filter0_dd" x="0.345603" y="0.345603" width="274.879" height="274.879" filterUnits="userSpaceOnUse" color-interpolation-filters="sRGB">
<feFlood flood-opacity="0" result="BackgroundImageFix"/>
<feColorMatrix in="SourceAlpha" type="matrix" values="0 0 0 0 0 0 0 0 0 0 0 0 0 0 0 0 0 0 127 0" result="hardAlpha"/>
<feOffset dx="-11.3793" dy="-11.3793"/>
<feGaussianBlur stdDeviation="19.3448"/>
<feComposite in2="hardAlpha" operator="out"/>
<feColorMatrix type="matrix" values="0 0 0 0 0.0166667 0 0 0 0 0 0 0 0 0 0 0 0 0 0.58 0"/>
<feBlend mode="normal" in2="BackgroundImageFix" result="effect1_dropShadow"/>
<feColorMatrix in="SourceAlpha" type="matrix" values="0 0 0 0 0 0 0 0 0 0 0 0 0 0 0 0 0 0 127 0" result="hardAlpha"/>
<feOffset dx="11.3793" dy="11.3793"/>
<feGaussianBlur stdDeviation="31.5169"/>
<feComposite in2="hardAlpha" operator="out"/>
<feColorMatrix type="matrix" values="0 0 0 0 1 0 0 0 0 0.345098 0 0 0 0 0 0 0 0 1 0"/>
<feBlend mode="normal" in2="effect1_dropShadow" result="effect2_dropShadow"/>
<feBlend mode="normal" in="SourceGraphic" in2="effect2_dropShadow" result="shape"/>
</filter>
<linearGradient id="paint0_linear" x1="86.2375" y1="81.9099" x2="142.944" y2="148.712" gradientUnits="userSpaceOnUse">
<stop stop-color="#FF5800"/>
<stop offset="1"/>
</linearGradient>
</defs>
</svg>
