<svg width="223" height="223" viewBox="0 0 223 223" fill="none" xmlns="http://www.w3.org/2000/svg">
<g filter="url(#filter0_dd)">
<circle cx="102.201" cy="102.202" r="44.5" transform="rotate(-28.0579 102.201 102.202)" fill="url(#paint0_linear)"/>
</g>
<path d="M122.491 110.165L122.886 109.77L122.952 109.967V110.297L122.886 110.692L122.689 111.087L122.425 111.417L122.096 111.614L121.832 111.68V111.351L121.964 111.021L122.227 110.56L122.491 110.165Z" stroke="#FF7800"/>
<path d="M108.786 104.367L108.522 103.84V103.642L108.786 103.708L109.379 104.169L110.169 104.367L111.224 104.433L112.475 104.367L113.661 104.169L114.913 103.708L115.967 103.049L116.889 102.127L117.614 101.271L117.944 100.612L118.207 99.8212V99.1624L117.878 98.5694L117.416 98.0424L116.758 97.8447L115.967 97.7129L115.111 97.6471L114.122 97.7129L112.936 97.8447L111.882 98.1741L110.762 98.5694L109.379 99.1624L108.193 99.8212L107.139 100.48L106.085 101.271L104.965 102.522L104.372 103.313L104.108 104.038V104.762L104.306 105.751L105.228 106.936L108.588 109.704L111.355 108.188L111.816 107.529L112.344 107.068L113.134 106.673L113.793 106.541L114.386 106.805L114.715 107.332V108.386L115.045 108.188L115.506 108.32L115.638 108.715L115.506 109.045L114.781 111.548V112.339H114.913L117.285 107.266L117.614 106.344L117.746 105.948L117.878 105.619L118.207 105.487H118.8H119.327L119.459 105.816L119.327 106.278L119.129 106.805V107.529L119.261 108.32L119.591 109.045L120.711 106.936L121.04 106.344L121.435 105.685L121.567 104.96L121.831 104.762L122.16 104.565H122.753H123.082L123.346 104.762V105.092L123.082 105.685L122.951 106.344V107.068V107.529L123.346 108.056L123.609 108.584L124.071 108.32L124.729 108.188L125.52 108.056H126.179H126.969L127.76 108.188L128.485 108.584L129.144 109.045L129.605 109.572L129.868 110.231L130 110.955L129.868 111.68L129.407 112.339L129.012 112.668L128.682 112.8L128.485 112.668L128.682 112.471L129.012 112.141L129.341 111.878L129.407 111.285L129.341 110.626L129.012 110.033L128.485 109.572L127.628 109.176L126.838 109.045L125.52 108.913H124.466L123.807 109.308L124.005 109.835L124.071 110.231L124.005 110.955L123.478 111.68L122.951 112.141L122.16 112.471L121.567 112.668L121.04 112.471L120.842 112.141V111.68L121.172 110.758L121.699 110.033L122.555 109.176L122.292 108.913L122.028 108.32L121.831 107.793L121.699 107.068L120.052 109.835L120.184 110.033L120.315 110.626V111.351L120.184 112.009L119.722 112.668L119.129 113.129L118.536 113.393L117.812 113.525H117.153L116.758 113.393L116.692 113.064L116.889 112.668L118.8 110.231L118.471 109.572L118.207 109.176L118.075 108.715L117.944 107.925L115.242 113.459L115.045 113.722L114.584 113.92L113.991 113.722L113.661 113.393V112.668V111.68L113.134 112.932L112.805 113.722L112.344 114.184L111.816 114.381L111.224 114.184L110.894 113.722L110.565 113.129L110.367 112.339V111.285V110.428L110.565 109.638L109.115 110.56L109.379 111.087V111.878V112.668L109.115 113.722L108.522 114.908L108.061 115.633L107.205 116.292L105.953 116.753L104.833 116.951L104.042 116.753L103.384 116.292L102.988 115.369V114.513L103.384 113.393L104.306 112.339L105.755 111.285L107.468 110.231L105.755 108.979L104.504 107.991L103.384 107.002L102.725 106.278L102.329 105.553L102.066 105.026L102 104.433L102.066 103.708L102.593 102.522L103.779 100.941L105.36 99.5576L107.468 98.1741L109.379 97.3176L111.026 96.5929L112.212 96.2635L113.464 96H114.584H115.506L116.692 96.1318L117.548 96.3953L118.405 96.8565L118.998 97.3176L119.393 97.9765L119.591 98.8329V99.5576V100.216L119.393 100.941L118.998 101.732L118.405 102.522L117.746 103.247L116.889 104.038L115.835 104.565L114.584 105.026L113.134 105.421L111.882 105.553L110.565 105.421L109.576 105.026L108.786 104.367Z" stroke="#FF7800"/>
<path d="M113.924 108.318L113.199 110.361L112.606 111.81L112.343 112.403L112.014 112.667L111.75 112.403V112.074V111.481V110.69L112.014 109.636L112.343 108.911L112.804 108.187L113.199 107.726L113.661 107.594H113.924V107.989V108.318Z" stroke="#FF7800"/>
<path d="M106.745 111.748L108.194 110.957L108.326 111.484V112.341L108.063 113.329L107.404 114.185L106.745 114.91L105.757 115.305H105.098L104.768 115.042L104.637 114.449L104.768 113.724L105.559 112.67L106.745 111.748Z" stroke="#FF7800"/>
<path d="M117.812 112.535L119.13 111.086V111.349L118.998 111.745L118.735 112.14L118.34 112.469L117.944 112.667H117.812V112.535Z" stroke="#FF7800"/>
<path d="M86.6376 87.0464C86.7533 87.042 87.0061 87.0064 87.2095 87.0031C87.6161 86.9966 88.1705 86.998 88.7612 87.0299C89.3518 87.0617 89.9792 87.124 90.5318 87.2393C91.0835 87.3544 91.5641 87.5231 91.858 87.7699C93.0175 88.7435 93.9692 90.0194 94.3638 91.1813C94.561 91.7617 94.7464 92.6599 94.8825 93.551C95.0186 94.4423 95.1057 95.3286 95.1055 95.8856C95.1051 96.9157 94.4933 97.7675 94.0003 98.4539C93.9575 98.5135 93.9155 98.572 93.8749 98.6292C93.7499 98.8053 93.6756 99.0048 93.6144 99.219C93.5891 99.3076 93.5661 99.3982 93.5427 99.4907L93.5279 99.5492C93.4992 99.6618 93.4691 99.7767 93.4327 99.8924C93.2869 100.356 93.0411 100.83 92.3873 101.227C91.7375 101.621 91.2779 101.779 90.919 101.849C90.7397 101.884 90.5861 101.897 90.4474 101.907L90.4045 101.91C90.2828 101.919 90.1732 101.927 90.0659 101.947C89.863 101.986 89.7054 102.058 89.5344 102.136C89.5036 102.15 89.4724 102.164 89.4405 102.178C89.231 102.272 88.9914 102.365 88.6299 102.41C88.2696 102.455 87.7474 102.455 87.3164 102.444C87.1007 102.438 87 102.43 86.8607 102.423C86.7974 102.42 86.6973 102.414 86.6503 102.411L86.6376 102.41C86.5988 102.413 86.4604 102.419 86.3907 102.423C86.2514 102.43 86.0581 102.438 85.8424 102.444C85.4114 102.455 84.8893 102.455 84.5289 102.41C84.1674 102.365 83.9278 102.272 83.7183 102.178C83.6864 102.164 83.6552 102.15 83.6245 102.136C83.4535 102.058 83.2959 101.986 83.0929 101.947C82.9856 101.927 82.876 101.919 82.7543 101.91L82.7114 101.907C82.5728 101.897 82.4191 101.884 82.2398 101.849C81.8809 101.779 81.4213 101.621 80.7715 101.227C80.1177 100.83 79.8719 100.356 79.7261 99.8924C79.6897 99.7767 79.6596 99.6618 79.6309 99.5492L79.6162 99.4913C79.5928 99.3988 79.5697 99.3076 79.5444 99.219C79.4832 99.0048 79.4089 98.8053 79.2839 98.6292C79.2433 98.572 79.2013 98.5136 79.1585 98.4539C78.6655 97.7675 78.0537 96.9157 78.0533 95.8856C78.0532 95.3286 78.1402 94.4423 78.2763 93.551C78.4124 92.6599 78.5978 91.7617 78.795 91.1813C79.1896 90.0194 80.1413 88.7435 81.3008 87.7699C81.5947 87.5231 82.0753 87.3544 82.6271 87.2393C83.1796 87.124 83.8071 87.0617 84.3976 87.0299C84.9883 86.998 85.5427 86.9966 85.9493 87.0031C86.1527 87.0064 86.522 87.042 86.6376 87.0464Z" fill="#FF7800"/>
<path d="M94.2969 95.2344C94.2969 95.2344 93.9072 96.0798 93.4177 96.3218C92.8993 96.5781 91.9369 96.3218 91.9369 96.3218" stroke="#D3B494" stroke-width="0.0925488"/>
<path d="M81.0234 96.3555C81.0234 96.3555 80.1212 96.5847 79.625 96.3565C79.0996 96.1149 78.6931 95.2058 78.6931 95.2058" stroke="#D3B494" stroke-width="0.0925488"/>
<path d="M91.8288 87.8991C91.5441 87.66 91.0731 87.4932 90.5229 87.3784C89.9735 87.2637 89.3486 87.2016 88.7592 87.1699C88.17 87.1381 87.6167 87.1366 87.2108 87.1431C87.0078 87.1464 86.7535 87.182 86.6382 87.1864C86.5228 87.182 86.1521 87.1464 85.9491 87.1431C85.5432 87.1366 84.9899 87.1381 84.4006 87.1699C83.8113 87.2016 83.1864 87.2637 82.637 87.3784C82.0868 87.4932 81.6158 87.66 81.3311 87.8991C80.1762 88.8689 79.3694 90.1381 78.9781 91.29C78.7823 91.8664 78.5974 92.7614 78.4614 93.6518C78.3255 94.5421 78.3779 94.615 78.239 95.9794C78.1002 97.3437 80.5531 98.9633 80.5531 98.9633C80.5531 98.9633 80.6482 97.508 81.0158 96.6727C81.7295 95.0511 84.4006 93.6518 84.4006 93.6518C84.4006 93.6518 85.6487 92.4395 86.6382 92.4618C87.5877 92.4831 88.7592 93.6518 88.7592 93.6518C88.7592 93.6518 91.1859 95.1221 91.8585 96.6727C92.222 97.5106 92.3299 98.9633 92.3299 98.9633C92.3299 98.9633 95.1986 97.7602 94.9672 95.9794C94.9408 95.7764 94.9193 95.601 94.9017 95.4481C94.8856 95.1942 94.8598 94.9098 94.826 94.6095C94.7913 94.3017 94.7482 93.9772 94.6985 93.6518C94.5625 92.7614 94.3776 91.8664 94.1817 91.29C93.7905 90.1381 92.9837 88.8689 91.8288 87.8991Z" fill="#A74E00"/>
<path d="M87.6328 90.0312C87.6328 90.0312 87.0086 89.4042 86.4991 89.3834C85.9499 89.3609 85.2497 90.0312 85.2497 90.0312" stroke="#FF7800" stroke-width="0.0925488"/>
<path d="M94.0164 91.8366C93.9241 91.6052 92.8132 90.0781 92.8132 90.0781V90.8417C92.8132 90.8417 90.5393 89.8122 89.8286 90.8417C89.2682 91.6535 90.5777 93.2537 89.6898 93.1322C89.4886 93.1047 89.2038 92.9471 89.2038 92.9471C90.4818 93.8958 91.0956 94.489 92.0497 95.6311C92.0497 95.6311 92.9636 95.4686 93.4148 95.122C93.878 94.7662 94.0953 94.4528 94.2709 93.8958C94.5145 93.123 94.1086 92.0679 94.0164 91.8366Z" fill="#FF7800"/>
<path d="M79.0032 91.8366C79.0954 91.6052 80.2063 90.0781 80.2063 90.0781V90.8417C80.2063 90.8417 82.4803 89.8122 83.1909 90.8417C83.7513 91.6535 82.4418 93.2537 83.3297 93.1322C83.5309 93.1047 83.8157 92.9471 83.8157 92.9471C82.5377 93.8958 81.9239 94.489 80.9698 95.6311C80.9698 95.6311 80.0559 95.4686 79.6047 95.122C79.1416 94.7662 78.9243 94.4528 78.7486 93.8958C78.505 93.123 78.9109 92.0679 79.0032 91.8366Z" fill="#FF7800"/>
<path d="M91.9131 98.6844C91.9133 98.9157 91.9384 99.9246 91.7049 100.605C91.5705 100.996 91.4222 101.228 91.0802 101.461C90.642 101.76 90.2412 101.501 89.7382 101.669C89.3167 101.81 89.192 101.911 88.7665 102.039C87.8999 102.301 87.4038 102.067 86.499 102.039C85.5688 102.011 85.0089 102.255 84.1159 101.993C83.7584 101.888 83.5002 101.779 83.1441 101.669C82.6713 101.524 82.306 101.736 81.8947 101.461C81.5506 101.231 81.455 101.137 81.27 100.605C81.0851 100.073 81.0174 99.4418 80.9924 98.6844C80.9681 97.9509 80.9924 97.3423 81.1312 96.8103C81.27 96.2782 81.9851 95.3441 82.7971 94.6585C83.4899 94.0737 84.81 93.5017 84.81 93.5017C84.81 93.5017 85.5272 92.6688 86.499 92.6919C87.4709 92.7149 88.0724 93.5017 88.0724 93.5017C88.0724 93.5017 89.2979 93.9645 89.9465 94.4734C90.845 95.1785 91.6125 96.1855 91.7975 96.8103C91.9824 97.4351 91.913 98.4532 91.9131 98.6844Z" fill="#A74E00"/>
<path d="M90.7812 89.9191C90.7812 89.9191 88.8312 89.3628 88.375 90.1042C88.1138 90.5285 88.4675 91.3767 88.4675 91.3767C88.4675 91.3767 87.2602 90.5067 86.3852 90.5438C85.5932 90.5773 84.5342 91.3767 84.5342 91.3767C84.5342 91.3767 84.6627 90.5022 84.326 90.1042C83.8636 89.5576 82.4981 89.9191 82.4981 89.9191" stroke="#FF7800" stroke-width="0.0925488"/>
<path d="M91.7969 98.5214C91.6116 98.961 89.7609 100.604 86.4964 100.604C82.798 100.604 81.9282 99.308 81.6398 99.0535C80.8531 98.3594 81.0003 97.604 81.1388 97.0711C81.2774 96.5381 81.991 95.6024 82.8015 94.9157C83.493 94.3299 84.8106 93.7569 84.8106 93.7569C84.8106 93.7569 85.5264 92.9227 86.4964 92.9458C87.4664 92.9689 88.0667 93.7569 88.0667 93.7569C88.0667 93.7569 89.2899 94.2206 89.9372 94.7303C90.8341 95.4365 91.6001 96.4452 91.7847 97.0711C91.9692 97.6969 91.9823 98.0818 91.7969 98.5214Z" fill="#FF7800"/>
<path d="M89.0664 92.6694C89.0664 92.6694 87.6205 91.5763 86.5445 91.5588C85.427 91.5406 83.9068 92.6694 83.9068 92.6694" stroke="#FF7800" stroke-width="0.0925488"/>
<path d="M87.4922 94.3359C86.7518 94.6367 86.2659 94.6367 85.4793 94.3359" stroke="#A74E00" stroke-width="0.0925488"/>
<path d="M86.4769 96.7644L86.5 94.5664" stroke="#A74E00" stroke-width="0.0925488"/>
<path d="M88.6484 99.0992C88.6484 99.0992 87.7071 96.8086 86.4735 96.8086C85.24 96.8086 84.2986 99.0992 84.2986 99.0992" stroke="#A74E00" stroke-width="0.0925488"/>
<circle r="0.16196" transform="matrix(0.720735 -0.693211 -0.693211 -0.720735 83.817 96.4976)" fill="#A74E00"/>
<circle r="0.16196" transform="matrix(-1 0 0 1 89.3459 96.5799)" fill="#A74E00"/>
<circle r="0.16196" transform="matrix(-1 0 0 1 89.6701 95.6541)" fill="#A74E00"/>
<circle r="0.16196" transform="matrix(-1 0 0 1 88.4669 95.6541)" fill="#A74E00"/>
<circle r="0.16196" transform="matrix(0.720735 -0.693211 -0.693211 -0.720735 83.4107 95.6069)" fill="#A74E00"/>
<circle r="0.16196" transform="matrix(0.720735 -0.693211 -0.693211 -0.720735 84.6841 95.6655)" fill="#A74E00"/>
<path d="M95.1524 88.2505C96.6794 89.0606 99.109 91.9527 99.1551 92.2533C99.2012 92.5538 97.8195 93.2494 97.2116 94.1737C96.6304 95.0572 96.6334 95.7704 96.101 96.4411C95.5686 97.1118 95.2449 96.7653 95.1987 96.3948C95.1524 96.0244 94.8308 92.8083 94.3194 91.1427C93.8081 89.4771 91.6587 87.6493 91.5661 87.4639C91.4736 87.2784 93.6253 87.4405 95.1524 88.2505Z" fill="#FF7800"/>
<path d="M78.0039 88.2505C76.4768 89.0606 74.0472 91.9527 74.0011 92.2533C73.955 92.5538 75.3367 93.2494 75.9447 94.1737C76.5259 95.0572 76.5229 95.7704 77.0552 96.4411C77.5876 97.1118 77.9113 96.7653 77.9576 96.3948C78.0039 96.0244 78.3255 92.8083 78.8368 91.1427C79.3481 89.4771 81.4976 87.6493 81.5901 87.4639C81.6827 87.2784 79.5309 87.4405 78.0039 88.2505Z" fill="#FF7800"/>
<path d="M76.9913 96.0457C77.0607 92.2975 79.6289 88.7344 79.6289 88.7344C79.6289 88.7344 76.4822 91.9967 76.0658 94.1253C76.0658 94.1253 76.4591 94.7269 76.5285 95.0046C76.5979 95.2822 76.9913 96.0457 76.9913 96.0457Z" fill="#A74E00"/>
<path d="M96.2861 95.952C96.2167 92.2038 93.6484 88.6406 93.6484 88.6406C93.6484 88.6406 96.7951 91.903 97.2116 94.0316C97.2116 94.0316 96.8182 94.6332 96.7488 94.9108C96.6794 95.1885 96.2861 95.952 96.2861 95.952Z" fill="#A74E00"/>
<circle r="1.73529" transform="matrix(-0.529919 -0.848048 -0.848048 0.529919 81.1557 93.198)" fill="#C55F05"/>
<circle r="0.485881" transform="matrix(-0.529919 -0.848048 -0.848048 0.529919 81.5141 92.3728)" fill="#A74E00"/>
<circle r="1.73529" transform="matrix(-1 0 0 1 91.796 93.204)" fill="#C55F05"/>
<circle r="0.485881" transform="matrix(-1 0 0 1 91.2876 92.4664)" fill="#A74E00"/>
<ellipse rx="0.185098" ry="0.347058" transform="matrix(-0.965926 0.258819 0.258819 0.965926 86.9735 93.9339)" fill="#A74E00"/>
<ellipse rx="0.185098" ry="0.347058" transform="matrix(-0.965926 -0.258819 -0.258819 0.965926 86.0908 93.9319)" fill="#A74E00"/>
<defs>
<filter id="filter0_dd" x="0.206896" y="0.206896" width="222.402" height="222.402" filterUnits="userSpaceOnUse" color-interpolation-filters="sRGB">
<feFlood flood-opacity="0" result="BackgroundImageFix"/>
<feColorMatrix in="SourceAlpha" type="matrix" values="0 0 0 0 0 0 0 0 0 0 0 0 0 0 0 0 0 0 127 0" result="hardAlpha"/>
<feOffset dx="-9.2069" dy="-9.2069"/>
<feGaussianBlur stdDeviation="15.6517"/>
<feComposite in2="hardAlpha" operator="out"/>
<feColorMatrix type="matrix" values="0 0 0 0 0.0166667 0 0 0 0 0 0 0 0 0 0 0 0 0 0.58 0"/>
<feBlend mode="normal" in2="BackgroundImageFix" result="effect1_dropShadow"/>
<feColorMatrix in="SourceAlpha" type="matrix" values="0 0 0 0 0 0 0 0 0 0 0 0 0 0 0 0 0 0 127 0" result="hardAlpha"/>
<feOffset dx="9.2069" dy="9.2069"/>
<feGaussianBlur stdDeviation="25.5"/>
<feComposite in2="hardAlpha" operator="out"/>
<feColorMatrix type="matrix" values="0 0 0 0 1 0 0 0 0 0.407843 0 0 0 0 0 0 0 0 1 0"/>
<feBlend mode="normal" in2="effect1_dropShadow" result="effect2_dropShadow"/>
<feBlend mode="normal" in="SourceGraphic" in2="effect2_dropShadow" result="shape"/>
</filter>
<linearGradient id="paint0_linear" x1="69.7012" y1="66.2021" x2="115.582" y2="120.251" gradientUnits="userSpaceOnUse">
<stop stop-color="#FF6800"/>
<stop offset="1"/>
</linearGradient>
</defs>
</svg>
