<svg width="301" height="301" viewBox="0 0 301 301" fill="none" xmlns="http://www.w3.org/2000/svg">
<g filter="url(#filter0_dd)">
<circle cx="138.17" cy="138.172" r="60" transform="rotate(-28.0579 138.17 138.172)" fill="url(#paint0_linear)"/>
</g>
<path d="M134.174 147.44L131.892 146.679L129 122.785L131.892 123.85L134.783 124.307L139.045 124.611H143.306L147.567 124.155L150.611 123.394L148.176 146.679L145.893 147.44L143.002 147.897L139.958 148.049L137.066 147.897L134.174 147.44Z" fill="#FF7800" stroke="#FF7800" stroke-width="0.304382"/>
<path d="M133.717 149.72L134.022 157.482L135.544 158.243L137.522 158.7L140.109 158.852L142.544 158.7L144.371 158.243L146.045 157.482L146.349 149.72L147.567 147.438L145.817 147.894L143.001 148.351L139.957 148.655L137.522 148.503L134.631 148.046L132.348 147.438L133.717 149.72Z" fill="#FF7800" stroke="#FF7800" stroke-width="0.304382"/>
<ellipse cx="139.958" cy="122.025" rx="10.8055" ry="1.97848" fill="#FF7800"/>
<ellipse cx="143.208" cy="122.632" rx="2.49359" ry="0.456572" fill="white"/>
<path d="M143.612 116.696L142.242 122.48L142.394 122.632L142.699 122.784H143.308L143.916 122.632L144.221 122.48L145.286 117.61L145.438 117.001L145.895 116.544L150.765 111.065L149.7 110L144.677 115.327L143.916 116.088L143.612 116.696Z" fill="#FF7800" stroke="#FF7800" stroke-width="0.304382"/>
<defs>
<filter id="filter0_dd" x="0.649747" y="0.649747" width="299.868" height="299.868" filterUnits="userSpaceOnUse" color-interpolation-filters="sRGB">
<feFlood flood-opacity="0" result="BackgroundImageFix"/>
<feColorMatrix in="SourceAlpha" type="matrix" values="0 0 0 0 0 0 0 0 0 0 0 0 0 0 0 0 0 0 127 0" result="hardAlpha"/>
<feOffset dx="-12.4138" dy="-12.4138"/>
<feGaussianBlur stdDeviation="21.1034"/>
<feComposite in2="hardAlpha" operator="out"/>
<feColorMatrix type="matrix" values="0 0 0 0 0.0166667 0 0 0 0 0 0 0 0 0 0 0 0 0 0.58 0"/>
<feBlend mode="normal" in2="BackgroundImageFix" result="effect1_dropShadow"/>
<feColorMatrix in="SourceAlpha" type="matrix" values="0 0 0 0 0 0 0 0 0 0 0 0 0 0 0 0 0 0 127 0" result="hardAlpha"/>
<feOffset dx="12.4138" dy="12.4138"/>
<feGaussianBlur stdDeviation="34.382"/>
<feComposite in2="hardAlpha" operator="out"/>
<feColorMatrix type="matrix" values="0 0 0 0 1 0 0 0 0 0.282353 0 0 0 0 0 0 0 0 1 0"/>
<feBlend mode="normal" in2="effect1_dropShadow" result="effect2_dropShadow"/>
<feBlend mode="normal" in="SourceGraphic" in2="effect2_dropShadow" result="shape"/>
</filter>
<linearGradient id="paint0_linear" x1="94.35" y1="89.6325" x2="156.212" y2="162.508" gradientUnits="userSpaceOnUse">
<stop stop-color="#FF4800"/>
<stop offset="1"/>
</linearGradient>
</defs>
</svg>
