<svg width="478" height="502" viewBox="0 0 478 502" fill="none" xmlns="http://www.w3.org/2000/svg">
<g filter="url(#filter0_dd)">
<circle cx="229.935" cy="230.4" r="100.288" transform="rotate(-28.0579 229.935 230.4)" fill="url(#paint0_linear)"/>
</g>
<path d="M257.438 206.918H206.445L211.542 252.297L232.974 258.911L252.649 252.297L257.438 206.918Z" stroke="#FF7800" stroke-width="0.6"/>
<path d="M220.334 241.213C218.875 241.213 217.524 240.93 216.283 240.364C215.063 239.776 214.061 238.959 213.277 237.913L215.695 235.006C216.958 236.748 218.472 237.619 220.236 237.619C222.611 237.619 223.798 236.214 223.798 233.405V221.577H215.662V218.016H228.045V233.176C228.045 235.855 227.392 237.87 226.085 239.22C224.778 240.549 222.861 241.213 220.334 241.213ZM241.093 241.213C239.329 241.213 237.619 240.963 235.963 240.462C234.33 239.961 233.034 239.297 232.075 238.469L233.545 235.169C234.482 235.91 235.626 236.519 236.976 236.999C238.348 237.456 239.721 237.685 241.093 237.685C242.792 237.685 244.055 237.412 244.883 236.868C245.732 236.323 246.157 235.605 246.157 234.712C246.157 234.058 245.918 233.524 245.438 233.111C244.981 232.675 244.393 232.337 243.674 232.098C242.955 231.858 241.975 231.586 240.734 231.281C238.991 230.867 237.575 230.453 236.486 230.039C235.419 229.625 234.493 228.983 233.709 228.112C232.946 227.219 232.565 226.021 232.565 224.518C232.565 223.254 232.903 222.111 233.578 221.087C234.275 220.041 235.31 219.214 236.682 218.604C238.076 217.994 239.775 217.689 241.779 217.689C243.173 217.689 244.545 217.863 245.896 218.212C247.246 218.56 248.412 219.061 249.392 219.715L248.052 223.015C247.05 222.427 246.005 221.98 244.916 221.675C243.827 221.37 242.77 221.218 241.746 221.218C240.069 221.218 238.817 221.501 237.989 222.067C237.183 222.633 236.78 223.385 236.78 224.322C236.78 224.975 237.009 225.509 237.466 225.923C237.945 226.336 238.544 226.663 239.263 226.903C239.982 227.142 240.962 227.415 242.204 227.72C243.903 228.112 245.297 228.525 246.386 228.961C247.475 229.375 248.401 230.018 249.163 230.889C249.947 231.76 250.339 232.936 250.339 234.417C250.339 235.681 249.991 236.824 249.294 237.848C248.619 238.872 247.584 239.689 246.19 240.299C244.796 240.909 243.097 241.213 241.093 241.213Z" fill="#FF7800"/>
<path d="M278.719 209H242L247.662 241.603L262.247 245.719L275.116 241.603L278.719 209Z" stroke="#FF7800" stroke-width="0.37"/>
<path d="M260.476 224.532C262.106 224.532 263.313 224.852 264.095 225.491C264.877 226.119 265.268 226.978 265.268 228.068C265.268 228.762 265.097 229.39 264.756 229.952C264.414 230.514 263.902 230.96 263.219 231.291C262.536 231.621 261.693 231.786 260.691 231.786C259.865 231.786 259.066 231.671 258.295 231.439C257.524 231.197 256.874 230.867 256.345 230.448L257.254 228.779C257.683 229.132 258.196 229.412 258.791 229.622C259.396 229.82 260.019 229.919 260.658 229.919C261.418 229.919 262.013 229.765 262.442 229.456C262.883 229.137 263.103 228.702 263.103 228.151C263.103 227.556 262.866 227.11 262.393 226.813C261.93 226.504 261.131 226.35 259.997 226.35H257.204L257.799 220.054H264.59V221.856H259.617L259.369 224.532H260.476Z" fill="#FF7800"/>
<path d="M220.733 209H179L185.436 246.055L202.012 250.733L216.638 246.055L220.733 209Z" stroke="#FF7800" stroke-width="0.36991"/>
<path d="M202.342 225.759C203.637 225.919 204.626 226.36 205.307 227.081C205.988 227.802 206.328 228.704 206.328 229.785C206.328 230.6 206.121 231.341 205.707 232.009C205.293 232.677 204.666 233.211 203.824 233.612C202.996 233.999 201.981 234.193 200.779 234.193C199.778 234.193 198.81 234.052 197.875 233.772C196.953 233.478 196.165 233.077 195.511 232.57L196.633 230.547C197.14 230.974 197.755 231.315 198.476 231.568C199.21 231.809 199.965 231.929 200.739 231.929C201.661 231.929 202.382 231.742 202.903 231.368C203.437 230.981 203.704 230.46 203.704 229.805C203.704 229.151 203.45 228.644 202.943 228.283C202.449 227.909 201.688 227.722 200.659 227.722H199.377V225.939L202.562 222.153H196.192V219.97H205.747V221.713L202.342 225.759Z" fill="#FF7800"/>
<defs>
<filter id="filter0_dd" x="0.0743599" y="0.539204" width="501.219" height="501.219" filterUnits="userSpaceOnUse" color-interpolation-filters="sRGB">
<feFlood flood-opacity="0" result="BackgroundImageFix"/>
<feColorMatrix in="SourceAlpha" type="matrix" values="0 0 0 0 0 0 0 0 0 0 0 0 0 0 0 0 0 0 127 0" result="hardAlpha"/>
<feOffset dx="-20.7492" dy="-20.7492"/>
<feGaussianBlur stdDeviation="35.2736"/>
<feComposite in2="hardAlpha" operator="out"/>
<feColorMatrix type="matrix" values="0 0 0 0 0.0166667 0 0 0 0 0 0 0 0 0 0 0 0 0 0.58 0"/>
<feBlend mode="normal" in2="BackgroundImageFix" result="effect1_dropShadow"/>
<feColorMatrix in="SourceAlpha" type="matrix" values="0 0 0 0 0 0 0 0 0 0 0 0 0 0 0 0 0 0 127 0" result="hardAlpha"/>
<feOffset dx="20.7492" dy="20.7492"/>
<feGaussianBlur stdDeviation="57.4683"/>
<feComposite in2="hardAlpha" operator="out"/>
<feColorMatrix type="matrix" values="0 0 0 0 1 0 0 0 0 0.027451 0 0 0 0 0 0 0 0 1 0"/>
<feBlend mode="normal" in2="effect1_dropShadow" result="effect2_dropShadow"/>
<feBlend mode="normal" in="SourceGraphic" in2="effect2_dropShadow" result="shape"/>
</filter>
<linearGradient id="paint0_linear" x1="156.691" y1="149.268" x2="260.091" y2="271.076" gradientUnits="userSpaceOnUse">
<stop stop-color="#FF1800"/>
<stop offset="1"/>
</linearGradient>
</defs>
</svg>
