<svg width="316" height="316" viewBox="0 0 316 316" fill="none" xmlns="http://www.w3.org/2000/svg">
<g filter="url(#filter0_dd)">
<circle cx="145.229" cy="145.228" r="63" transform="rotate(-28.0579 145.229 145.228)" fill="url(#paint0_linear)"/>
</g>
<path d="M165.041 113.348C165.041 114.645 163.339 115.696 161.239 115.696C159.14 115.696 157.438 114.645 157.438 113.348C157.438 112.051 159.14 111 161.239 111C163.339 111 165.041 112.051 165.041 113.348ZM158.406 113.348C158.406 114.315 159.674 115.098 161.239 115.098C162.804 115.098 164.073 114.315 164.073 113.348C164.073 112.382 162.804 111.598 161.239 111.598C159.674 111.598 158.406 112.382 158.406 113.348Z" fill="#FF7800"/>
<path d="M165.039 117.003C165.039 117.543 164.646 118.062 163.945 118.444C163.244 118.826 162.294 119.041 161.303 119.041C160.312 119.041 159.361 118.826 158.661 118.444C157.96 118.062 157.566 117.543 157.566 117.003H158.313C158.313 117.435 158.628 117.85 159.189 118.156C159.75 118.462 160.51 118.633 161.303 118.633C162.096 118.633 162.856 118.462 163.417 118.156C163.977 117.85 164.292 117.435 164.292 117.003H165.039Z" fill="#FF7800"/>
<path d="M157.945 117.006V113.949" stroke="#FF7800" stroke-width="0.679347"/>
<path d="M164.664 117.006V113.949" stroke="#FF7800" stroke-width="0.679347"/>
<path d="M129.701 135.223C129.701 136.52 127.999 137.571 125.899 137.571C123.8 137.571 122.098 136.52 122.098 135.223C122.098 133.926 123.8 132.875 125.899 132.875C127.999 132.875 129.701 133.926 129.701 135.223ZM123.066 135.223C123.066 136.19 124.335 136.973 125.899 136.973C127.464 136.973 128.733 136.19 128.733 135.223C128.733 134.257 127.464 133.473 125.899 133.473C124.335 133.473 123.066 134.257 123.066 135.223Z" fill="#FF7800"/>
<path d="M129.699 138.878C129.699 139.418 129.306 139.937 128.605 140.319C127.904 140.701 126.954 140.916 125.963 140.916C124.972 140.916 124.022 140.701 123.321 140.319C122.62 139.937 122.227 139.418 122.227 138.878H122.974C122.974 139.31 123.288 139.725 123.849 140.031C124.41 140.337 125.17 140.508 125.963 140.508C126.756 140.508 127.516 140.337 128.077 140.031C128.637 139.725 128.952 139.31 128.952 138.878H129.699Z" fill="#FF7800"/>
<path d="M122.605 138.881V135.824" stroke="#FF7800" stroke-width="0.679347"/>
<path d="M129.324 138.881V135.824" stroke="#FF7800" stroke-width="0.679347"/>
<path d="M155.904 160.696C155.904 161.993 154.202 163.044 152.103 163.044C150.003 163.044 148.301 161.993 148.301 160.696C148.301 159.399 150.003 158.348 152.103 158.348C154.202 158.348 155.904 159.399 155.904 160.696ZM149.269 160.696C149.269 161.662 150.538 162.446 152.103 162.446C153.667 162.446 154.936 161.662 154.936 160.696C154.936 159.729 153.667 158.946 152.103 158.946C150.538 158.946 149.269 159.729 149.269 160.696Z" fill="#FF7800"/>
<path d="M155.902 164.351C155.902 164.891 155.509 165.409 154.808 165.792C154.107 166.174 153.157 166.389 152.166 166.389C151.175 166.389 150.225 166.174 149.524 165.792C148.823 165.409 148.43 164.891 148.43 164.351H149.177C149.177 164.783 149.492 165.198 150.052 165.504C150.613 165.809 151.373 165.981 152.166 165.981C152.959 165.981 153.719 165.809 154.28 165.504C154.841 165.198 155.156 164.783 155.156 164.351H155.902Z" fill="#FF7800"/>
<path d="M148.809 164.35V161.293" stroke="#FF7800" stroke-width="0.679347"/>
<path d="M155.527 164.35V161.293" stroke="#FF7800" stroke-width="0.679347"/>
<path d="M147.17 155.598C147.17 156.895 145.468 157.946 143.368 157.946C141.269 157.946 139.566 156.895 139.566 155.598C139.566 154.301 141.269 153.25 143.368 153.25C145.468 153.25 147.17 154.301 147.17 155.598ZM140.535 155.598C140.535 156.565 141.803 157.348 143.368 157.348C144.933 157.348 146.201 156.565 146.201 155.598C146.201 154.632 144.933 153.848 143.368 153.848C141.803 153.848 140.535 154.632 140.535 155.598Z" fill="#FF7800"/>
<path d="M147.168 159.253C147.168 159.793 146.774 160.312 146.074 160.694C145.373 161.076 144.423 161.291 143.432 161.291C142.441 161.291 141.49 161.076 140.79 160.694C140.089 160.312 139.695 159.793 139.695 159.253H140.442C140.442 159.685 140.757 160.1 141.318 160.406C141.878 160.712 142.639 160.883 143.432 160.883C144.225 160.883 144.985 160.712 145.546 160.406C146.106 160.1 146.421 159.685 146.421 159.253H147.168Z" fill="#FF7800"/>
<path d="M140.074 159.252V156.195" stroke="#FF7800" stroke-width="0.679347"/>
<path d="M146.793 159.252V156.195" stroke="#FF7800" stroke-width="0.679347"/>
<path d="M155.904 129.395C155.904 130.692 154.202 131.743 152.103 131.743C150.003 131.743 148.301 130.692 148.301 129.395C148.301 128.098 150.003 127.047 152.103 127.047C154.202 127.047 155.904 128.098 155.904 129.395ZM149.269 129.395C149.269 130.362 150.538 131.145 152.103 131.145C153.667 131.145 154.936 130.362 154.936 129.395C154.936 128.429 153.667 127.645 152.103 127.645C150.538 127.645 149.269 128.429 149.269 129.395Z" fill="#FF7800"/>
<path d="M155.902 133.05C155.902 133.59 155.509 134.109 154.808 134.491C154.107 134.873 153.157 135.088 152.166 135.088C151.175 135.088 150.225 134.873 149.524 134.491C148.823 134.109 148.43 133.59 148.43 133.05H149.177C149.177 133.482 149.492 133.897 150.052 134.203C150.613 134.509 151.373 134.68 152.166 134.68C152.959 134.68 153.719 134.509 154.28 134.203C154.841 133.897 155.156 133.482 155.156 133.05H155.902Z" fill="#FF7800"/>
<path d="M148.809 133.049V129.992" stroke="#FF7800" stroke-width="0.679347"/>
<path d="M155.527 133.049V129.992" stroke="#FF7800" stroke-width="0.679347"/>
<path d="M164.643 134.489C164.643 135.786 162.94 136.837 160.841 136.837C158.741 136.837 157.039 135.786 157.039 134.489C157.039 133.192 158.741 132.141 160.841 132.141C162.94 132.141 164.643 133.192 164.643 134.489ZM158.008 134.489C158.008 135.455 159.276 136.239 160.841 136.239C162.406 136.239 163.674 135.455 163.674 134.489C163.674 133.522 162.406 132.739 160.841 132.739C159.276 132.739 158.008 133.522 158.008 134.489Z" fill="#FF7800"/>
<path d="M164.641 138.14C164.641 138.68 164.247 139.199 163.546 139.581C162.846 139.963 161.895 140.178 160.904 140.178C159.913 140.178 158.963 139.963 158.262 139.581C157.562 139.199 157.168 138.68 157.168 138.14H157.915C157.915 138.572 158.23 138.987 158.791 139.293C159.351 139.598 160.112 139.77 160.904 139.77C161.697 139.77 162.458 139.598 163.018 139.293C163.579 138.987 163.894 138.572 163.894 138.14H164.641Z" fill="#FF7800"/>
<path d="M157.543 138.143V135.086" stroke="#FF7800" stroke-width="0.679347"/>
<path d="M164.266 138.143V135.086" stroke="#FF7800" stroke-width="0.679347"/>
<path d="M155.904 140.317C155.904 141.614 154.202 142.665 152.103 142.665C150.003 142.665 148.301 141.614 148.301 140.317C148.301 139.02 150.003 137.969 152.103 137.969C154.202 137.969 155.904 139.02 155.904 140.317ZM149.269 140.317C149.269 141.283 150.538 142.067 152.103 142.067C153.667 142.067 154.936 141.283 154.936 140.317C154.936 139.35 153.667 138.567 152.103 138.567C150.538 138.567 149.269 139.35 149.269 140.317Z" fill="#FF7800"/>
<path d="M155.902 143.972C155.902 144.512 155.509 145.031 154.808 145.413C154.107 145.795 153.157 146.01 152.166 146.01C151.175 146.01 150.225 145.795 149.524 145.413C148.823 145.031 148.43 144.512 148.43 143.972H149.177C149.177 144.404 149.492 144.819 150.052 145.125C150.613 145.43 151.373 145.602 152.166 145.602C152.959 145.602 153.719 145.43 154.28 145.125C154.841 144.819 155.156 144.404 155.156 143.972H155.902Z" fill="#FF7800"/>
<path d="M148.809 143.971V140.914" stroke="#FF7800" stroke-width="0.679347"/>
<path d="M155.527 143.971V140.914" stroke="#FF7800" stroke-width="0.679347"/>
<path d="M147.17 145.407C147.17 146.704 145.468 147.755 143.368 147.755C141.269 147.755 139.566 146.704 139.566 145.407C139.566 144.11 141.269 143.059 143.368 143.059C145.468 143.059 147.17 144.11 147.17 145.407ZM140.535 145.407C140.535 146.373 141.803 147.157 143.368 147.157C144.933 147.157 146.201 146.373 146.201 145.407C146.201 144.44 144.933 143.657 143.368 143.657C141.803 143.657 140.535 144.44 140.535 145.407Z" fill="#FF7800"/>
<path d="M147.168 149.061C147.168 149.602 146.774 150.12 146.074 150.503C145.373 150.885 144.423 151.1 143.432 151.1C142.441 151.1 141.49 150.885 140.79 150.503C140.089 150.12 139.695 149.602 139.695 149.061H140.442C140.442 149.494 140.757 149.909 141.318 150.214C141.878 150.52 142.639 150.692 143.432 150.692C144.225 150.692 144.985 150.52 145.546 150.214C146.106 149.909 146.421 149.494 146.421 149.061H147.168Z" fill="#FF7800"/>
<path d="M140.074 149.061V146.004" stroke="#FF7800" stroke-width="0.679347"/>
<path d="M146.793 149.061V146.004" stroke="#FF7800" stroke-width="0.679347"/>
<path d="M138.432 140.317C138.432 141.614 136.73 142.665 134.63 142.665C132.53 142.665 130.828 141.614 130.828 140.317C130.828 139.02 132.53 137.969 134.63 137.969C136.73 137.969 138.432 139.02 138.432 140.317ZM131.797 140.317C131.797 141.283 133.065 142.067 134.63 142.067C136.195 142.067 137.463 141.283 137.463 140.317C137.463 139.35 136.195 138.567 134.63 138.567C133.065 138.567 131.797 139.35 131.797 140.317Z" fill="#FF7800"/>
<path d="M138.43 143.972C138.43 144.512 138.036 145.031 137.335 145.413C136.635 145.795 135.684 146.01 134.693 146.01C133.702 146.01 132.752 145.795 132.051 145.413C131.351 145.031 130.957 144.512 130.957 143.972H131.704C131.704 144.404 132.019 144.819 132.58 145.125C133.14 145.43 133.901 145.602 134.693 145.602C135.486 145.602 136.247 145.43 136.807 145.125C137.368 144.819 137.683 144.404 137.683 143.972H138.43Z" fill="#FF7800"/>
<path d="M131.336 143.971V140.914" stroke="#FF7800" stroke-width="0.679347"/>
<path d="M138.055 143.971V140.914" stroke="#FF7800" stroke-width="0.679347"/>
<path d="M138.432 130.122C138.432 131.418 136.73 132.47 134.63 132.47C132.53 132.47 130.828 131.418 130.828 130.122C130.828 128.825 132.53 127.773 134.63 127.773C136.73 127.773 138.432 128.825 138.432 130.122ZM131.797 130.122C131.797 131.088 133.065 131.872 134.63 131.872C136.195 131.872 137.463 131.088 137.463 130.122C137.463 129.155 136.195 128.372 134.63 128.372C133.065 128.372 131.797 129.155 131.797 130.122Z" fill="#FF7800"/>
<path d="M138.43 133.776C138.43 134.317 138.036 134.835 137.335 135.217C136.635 135.6 135.684 135.814 134.693 135.814C133.702 135.814 132.752 135.6 132.051 135.217C131.351 134.835 130.957 134.317 130.957 133.776H131.704C131.704 134.209 132.019 134.624 132.58 134.929C133.14 135.235 133.901 135.407 134.693 135.407C135.486 135.407 136.247 135.235 136.807 134.929C137.368 134.624 137.683 134.209 137.683 133.776H138.43Z" fill="#FF7800"/>
<path d="M131.336 133.776V130.719" stroke="#FF7800" stroke-width="0.679347"/>
<path d="M138.055 133.776V130.719" stroke="#FF7800" stroke-width="0.679347"/>
<path d="M147.17 124.297C147.17 125.594 145.468 126.646 143.368 126.646C141.269 126.646 139.566 125.594 139.566 124.297C139.566 123.001 141.269 121.949 143.368 121.949C145.468 121.949 147.17 123.001 147.17 124.297ZM140.535 124.297C140.535 125.264 141.803 126.047 143.368 126.047C144.933 126.047 146.201 125.264 146.201 124.297C146.201 123.331 144.933 122.547 143.368 122.547C141.803 122.547 140.535 123.331 140.535 124.297Z" fill="#FF7800"/>
<path d="M147.168 127.952C147.168 128.493 146.774 129.011 146.074 129.393C145.373 129.775 144.423 129.99 143.432 129.99C142.441 129.99 141.49 129.775 140.79 129.393C140.089 129.011 139.695 128.493 139.695 127.952H140.442C140.442 128.385 140.757 128.799 141.318 129.105C141.878 129.411 142.639 129.583 143.432 129.583C144.225 129.583 144.985 129.411 145.546 129.105C146.106 128.799 146.421 128.385 146.421 127.952H147.168Z" fill="#FF7800"/>
<path d="M140.074 127.952V124.895" stroke="#FF7800" stroke-width="0.679347"/>
<path d="M146.793 127.952V124.895" stroke="#FF7800" stroke-width="0.679347"/>
<path d="M155.904 119.204C155.904 120.5 154.202 121.552 152.103 121.552C150.003 121.552 148.301 120.5 148.301 119.204C148.301 117.907 150.003 116.855 152.103 116.855C154.202 116.855 155.904 117.907 155.904 119.204ZM149.269 119.204C149.269 120.17 150.538 120.954 152.103 120.954C153.667 120.954 154.936 120.17 154.936 119.204C154.936 118.237 153.667 117.454 152.103 117.454C150.538 117.454 149.269 118.237 149.269 119.204Z" fill="#FF7800"/>
<path d="M155.902 122.858C155.902 123.399 155.509 123.917 154.808 124.299C154.107 124.682 153.157 124.896 152.166 124.896C151.175 124.896 150.225 124.682 149.524 124.299C148.823 123.917 148.43 123.399 148.43 122.858H149.177C149.177 123.291 149.492 123.706 150.052 124.011C150.613 124.317 151.373 124.489 152.166 124.489C152.959 124.489 153.719 124.317 154.28 124.011C154.841 123.706 155.156 123.291 155.156 122.858H155.902Z" fill="#FF7800"/>
<path d="M148.809 122.858V119.801" stroke="#FF7800" stroke-width="0.679347"/>
<path d="M155.527 122.858V119.801" stroke="#FF7800" stroke-width="0.679347"/>
<path d="M152.26 179.68L160.854 174.611V164.033M152.26 179.68V169.212M152.26 179.68L143.445 174.446M134.63 158.634V169.212L143.445 174.446M134.63 158.634L143.445 163.923M134.63 158.634V148.387M134.63 158.634L125.815 153.51M134.63 158.634L139.919 155.439M117 137.588V148.387L125.815 153.51M117 137.588L125.815 142.767M117 137.588L125.925 132.277M170 116.322V126.9L160.854 132.189M170 116.322L160.854 121.611M170 116.322L164.821 113.457M160.854 132.189V121.611M160.854 132.189L155.581 128.866M170 137.588V148.387L161.13 153.51M170 137.588L161.13 142.866M170 137.588L164.316 134.326M152.26 158.634V148.144M152.26 158.634L161.13 153.51M152.26 158.634L146.845 155.439M160.854 164.033L152.26 169.212M160.854 164.033L155.581 160.895M152.26 169.212L143.445 163.923M143.445 163.923V174.446M143.445 163.923L148.665 160.895M134.63 148.387L143.445 153.389L152.26 148.144M134.63 148.387L125.815 142.767M134.63 148.387L139.93 144.881L141.412 143.989L142.894 143.098L143.445 142.767M152.26 148.144L161.13 142.866M152.26 148.144L143.934 143.061M143.445 142.767V132.189M143.445 142.767L134.63 137.588M143.445 142.767L143.996 143.098M143.445 142.767L149.029 139.421L150.121 138.693L151.577 137.965L152.26 137.588M125.815 153.51V142.767M125.815 142.767L134.63 137.588M134.63 137.588L143.445 132.189M134.63 137.588L125.925 132.277M143.445 132.189L152.26 137.588M143.445 132.189L135.291 127.231L134.725 126.9M143.445 132.189L149.029 128.866M152.26 126.9L160.854 121.611M152.26 126.9L143.495 121.611M152.26 126.9L151.819 127.231M152.26 126.9L152.811 127.231M160.854 121.611L152.26 116.326M152.26 116.326L143.495 121.611M152.26 116.326L158.128 112.852M143.495 121.611L134.725 126.9M134.725 126.9L125.925 132.277M152.26 137.588L161.13 142.866M152.26 137.588L157.4 134.326M161.13 142.866V153.51" stroke="#FF7800" stroke-width="0.727935" stroke-linejoin="round"/>
<defs>
<filter id="filter0_dd" x="0.832234" y="0.832234" width="314.862" height="314.862" filterUnits="userSpaceOnUse" color-interpolation-filters="sRGB">
<feFlood flood-opacity="0" result="BackgroundImageFix"/>
<feColorMatrix in="SourceAlpha" type="matrix" values="0 0 0 0 0 0 0 0 0 0 0 0 0 0 0 0 0 0 127 0" result="hardAlpha"/>
<feOffset dx="-13.0345" dy="-13.0345"/>
<feGaussianBlur stdDeviation="22.1586"/>
<feComposite in2="hardAlpha" operator="out"/>
<feColorMatrix type="matrix" values="0 0 0 0 0.0166667 0 0 0 0 0 0 0 0 0 0 0 0 0 0.58 0"/>
<feBlend mode="normal" in2="BackgroundImageFix" result="effect1_dropShadow"/>
<feColorMatrix in="SourceAlpha" type="matrix" values="0 0 0 0 0 0 0 0 0 0 0 0 0 0 0 0 0 0 127 0" result="hardAlpha"/>
<feOffset dx="13.0345" dy="13.0345"/>
<feGaussianBlur stdDeviation="36.1011"/>
<feComposite in2="hardAlpha" operator="out"/>
<feColorMatrix type="matrix" values="0 0 0 0 1 0 0 0 0 0.219608 0 0 0 0 0 0 0 0 1 0"/>
<feBlend mode="normal" in2="effect1_dropShadow" result="effect2_dropShadow"/>
<feBlend mode="normal" in="SourceGraphic" in2="effect2_dropShadow" result="shape"/>
</filter>
<linearGradient id="paint0_linear" x1="99.2175" y1="94.2622" x2="164.173" y2="170.781" gradientUnits="userSpaceOnUse">
<stop stop-color="#FF3800"/>
<stop offset="1"/>
</linearGradient>
</defs>
</svg>
