<svg width="1440" height="1024" viewBox="0 0 1440 1024" fill="none" xmlns="http://www.w3.org/2000/svg">
<ellipse rx="0.716705" ry="0.545076" transform="matrix(0.112177 0.993688 -0.980493 0.196552 1069.64 415.655)" fill="#C4C4C4"/>
<ellipse rx="0.716705" ry="0.545076" transform="matrix(0.112177 0.993688 -0.980493 0.196552 1385.26 636.03)" fill="#C4C4C4"/>
<ellipse rx="1.5" ry="1.5" transform="matrix(0.112177 0.993688 -0.980493 0.196552 1372.53 685.969)" fill="#C4C4C4"/>
<ellipse rx="0.716705" ry="0.545076" transform="matrix(0.112177 0.993688 -0.980493 0.196552 1360.41 669.159)" fill="#C4C4C4"/>
<circle r="1" transform="matrix(0.112177 0.993688 -0.980493 0.196552 1383.77 669.53)" fill="#C4C4C4"/>
<ellipse rx="0.716705" ry="0.545076" transform="matrix(0.112177 0.993688 -0.980493 0.196552 1232.85 565.448)" fill="#C4C4C4"/>
<ellipse rx="0.716705" ry="0.545076" transform="matrix(0.112177 0.993688 -0.980493 0.196552 1278.09 414.69)" fill="#C4C4C4"/>
<ellipse rx="0.716705" ry="0.545076" transform="matrix(0.112177 0.993688 -0.980493 0.196552 1313.93 535.21)" fill="#C4C4C4"/>
<ellipse rx="0.716705" ry="0.545076" transform="matrix(0.112177 0.993688 -0.980493 0.196552 1231.78 735.417)" fill="#C4C4C4"/>
<ellipse rx="0.716705" ry="0.545076" transform="matrix(0.112177 0.993688 -0.980493 0.196552 1383.1 706.608)" fill="#C4C4C4"/>
<ellipse rx="0.716705" ry="0.545076" transform="matrix(0.112177 0.993688 -0.980493 0.196552 1117.2 345.077)" fill="#C4C4C4"/>
<circle r="1" transform="matrix(0.112177 0.993688 -0.980493 0.196552 1329.73 555.741)" fill="#C4C4C4"/>
<ellipse rx="0.716705" ry="0.545076" transform="matrix(0.112177 0.993688 -0.980493 0.196552 1339.87 378.198)" fill="#C4C4C4"/>
<ellipse rx="0.716705" ry="0.545076" transform="matrix(0.112177 0.993688 -0.980493 0.196552 1429.84 414.011)" fill="#C4C4C4"/>
<ellipse rx="0.716705" ry="0.545076" transform="matrix(0.112177 0.993688 -0.980493 0.196552 1416.09 389.093)" fill="#C4C4C4"/>
<ellipse rx="0.716705" ry="0.545076" transform="matrix(0.112177 0.993688 -0.980493 0.196552 1431.86 393.21)" fill="#C4C4C4"/>
<ellipse rx="0.716705" ry="0.545076" transform="matrix(0.112177 0.993688 -0.980493 0.196552 1437.89 378.886)" fill="#C4C4C4"/>
<ellipse rx="0.716705" ry="0.545076" transform="matrix(0.112177 0.993688 -0.980493 0.196552 1411.21 324.909)" fill="#C4C4C4"/>
<ellipse rx="0.716705" ry="0.545076" transform="matrix(0.112177 0.993688 -0.980493 0.196552 1363.65 304.737)" fill="#C4C4C4"/>
<ellipse rx="0.716705" ry="0.545076" transform="matrix(0.112177 0.993688 -0.980493 0.196552 1439.39 343.64)" fill="#C4C4C4"/>
<ellipse rx="0.716705" ry="0.545076" transform="matrix(0.112177 0.993688 -0.980493 0.196552 1414.45 244.249)" fill="#C4C4C4"/>
<ellipse cx="1034.76" cy="177.126" rx="0.540457" ry="0.720195" fill="#C4C4C4"/>
<ellipse cx="989.31" cy="218.583" rx="0.540457" ry="0.720195" fill="#C4C4C4"/>
<ellipse cx="982.822" cy="204.185" rx="0.540457" ry="0.720195" fill="#C4C4C4"/>
<circle cx="289.523" cy="309.664" r="1" fill="#C4C4C4"/>
<ellipse cx="978.501" cy="204.185" rx="0.540457" ry="0.720195" fill="#C4C4C4"/>
<ellipse cx="1217.47" cy="118.513" rx="0.540457" ry="0.720195" fill="#C4C4C4"/>
<ellipse cx="479.97" cy="192.158" rx="0.540457" ry="0.720195" fill="#C4C4C4"/>
<ellipse cx="230.638" cy="325.915" rx="0.540457" ry="0.720195" fill="#C4C4C4"/>
<ellipse cx="790.443" cy="733.212" rx="0.540457" ry="0.720195" fill="#C4C4C4"/>
<ellipse cx="486.642" cy="273.318" rx="0.540457" ry="0.720195" fill="#C4C4C4"/>
<ellipse cx="817.001" cy="946.626" rx="0.540457" ry="0.720195" fill="#C4C4C4"/>
<ellipse cx="778.759" cy="1023.28" rx="0.540457" ry="0.720195" fill="#C4C4C4"/>
<ellipse cx="754.33" cy="979.693" rx="0.540457" ry="0.720195" fill="#C4C4C4"/>
<ellipse cx="779.822" cy="883.501" rx="0.540457" ry="0.720195" fill="#C4C4C4"/>
<ellipse cx="775.56" cy="759.802" rx="0.540457" ry="0.720195" fill="#C4C4C4"/>
<ellipse cx="764.951" cy="878.998" rx="0.540457" ry="0.720195" fill="#C4C4C4"/>
<ellipse cx="505.912" cy="159.029" rx="0.540457" ry="0.720195" fill="#C4C4C4"/>
<ellipse cx="435.654" cy="161.908" rx="0.540457" ry="0.720195" fill="#C4C4C4"/>
<ellipse cx="517.802" cy="163.345" rx="0.540457" ry="0.720195" fill="#C4C4C4"/>
<ellipse cx="1089.35" cy="369.517" rx="0.540457" ry="0.720195" fill="#C4C4C4"/>
<ellipse cx="1357.68" cy="1016.88" rx="0.540457" ry="0.720195" fill="#C4C4C4"/>
<ellipse cx="516.72" cy="157.587" rx="0.540457" ry="0.720195" fill="#C4C4C4"/>
<ellipse rx="0.716705" ry="0.545076" transform="matrix(0.112177 0.993688 -0.980493 0.196552 917.616 369.819)" fill="#C4C4C4"/>
<ellipse rx="0.716705" ry="0.545076" transform="matrix(0.112177 0.993688 -0.980493 0.196552 881.616 332.819)" fill="#C4C4C4"/>
<ellipse rx="0.716705" ry="0.545076" transform="matrix(0.112177 0.993688 -0.980493 0.196552 893.616 523.819)" fill="#C4C4C4"/>
<ellipse rx="0.716705" ry="0.545076" transform="matrix(0.112177 0.993688 -0.980493 0.196552 929.616 325.819)" fill="#C4C4C4"/>
<ellipse rx="0.716705" ry="0.545076" transform="matrix(0.112177 0.993688 -0.980493 0.196552 825.616 336.819)" fill="#C4C4C4"/>
<ellipse rx="0.716705" ry="0.545076" transform="matrix(0.112177 0.993688 -0.980493 0.196552 961.616 497.819)" fill="#C4C4C4"/>
<ellipse rx="0.716705" ry="0.545076" transform="matrix(0.112177 0.993688 -0.980493 0.196552 906.616 399.819)" fill="#C4C4C4"/>
<ellipse rx="0.716705" ry="0.545076" transform="matrix(0.112177 0.993688 -0.980493 0.196552 873.616 358.819)" fill="#C4C4C4"/>
<ellipse rx="1.5" ry="1.5" transform="matrix(0.112177 0.993688 -0.980493 0.196552 936.768 455.785)" fill="#C4C4C4"/>
<ellipse rx="0.716705" ry="0.545076" transform="matrix(0.112177 0.993688 -0.980493 0.196552 937.616 565.819)" fill="#C4C4C4"/>
<ellipse rx="0.716705" ry="0.545076" transform="matrix(0.112177 0.993688 -0.980493 0.196552 818.616 304.819)" fill="#C4C4C4"/>
<circle r="1" transform="matrix(0.112177 0.993688 -0.980493 0.196552 948.202 447.19)" fill="#C4C4C4"/>
<ellipse rx="0.716705" ry="0.545076" transform="matrix(0.112177 0.993688 -0.980493 0.196552 902.616 452.819)" fill="#C4C4C4"/>
<ellipse cx="1106.65" cy="366.63" rx="0.540457" ry="0.720195" fill="#C4C4C4"/>
<ellipse cx="763.888" cy="892.525" rx="0.540457" ry="0.720195" fill="#C4C4C4"/>
<ellipse cx="508.948" cy="310.893" rx="0.540457" ry="0.720195" transform="rotate(-180 508.948 310.893)" fill="#C4C4C4"/>
<ellipse cx="503.635" cy="309.385" rx="0.540457" ry="0.720195" transform="rotate(-180 503.635 309.385)" fill="#C4C4C4"/>
<ellipse cx="316.999" cy="458.295" rx="0.540457" ry="0.720195" transform="rotate(-180 316.999 458.295)" fill="#C4C4C4"/>
<ellipse cx="325.155" cy="401.417" rx="0.540457" ry="0.720195" transform="rotate(-180 325.155 401.417)" fill="#C4C4C4"/>
<ellipse cx="303.292" cy="371.346" rx="0.540457" ry="0.720195" transform="rotate(-180 303.292 371.346)" fill="#C4C4C4"/>
<ellipse cx="307.174" cy="345.776" rx="0.540457" ry="0.720195" transform="rotate(-180 307.174 345.776)" fill="#C4C4C4"/>
<ellipse cx="365.733" cy="378.78" rx="0.540457" ry="0.720195" transform="rotate(-180 365.733 378.78)" fill="#C4C4C4"/>
<ellipse cx="339.381" cy="351.057" rx="0.540457" ry="0.720195" transform="rotate(-180 339.381 351.057)" fill="#C4C4C4"/>
<ellipse cx="329.577" cy="254.444" rx="0.540457" ry="0.720195" transform="rotate(-180 329.577 254.444)" fill="#C4C4C4"/>
<circle cx="292.566" cy="305.773" r="1.5" transform="rotate(-180 292.566 305.773)" fill="#C4C4C4"/>
<ellipse cx="812.749" cy="809.858" rx="0.540457" ry="0.720195" transform="rotate(-180 812.749 809.858)" fill="#C4C4C4"/>
<ellipse cx="446.276" cy="312.393" rx="0.540457" ry="0.720195" transform="rotate(-180 446.276 312.393)" fill="#C4C4C4"/>
<ellipse cx="623.67" cy="298.862" rx="0.540457" ry="0.720195" transform="rotate(-180 623.67 298.862)" fill="#C4C4C4"/>
<ellipse cx="618.362" cy="304.874" rx="0.540457" ry="0.720195" transform="rotate(-180 618.362 304.874)" fill="#C4C4C4"/>
<ellipse cx="459.655" cy="434.78" rx="0.540457" ry="0.720195" transform="rotate(-180 459.655 434.78)" fill="#C4C4C4"/>
<ellipse cx="557.811" cy="334.936" rx="0.540457" ry="0.720195" transform="rotate(-180 557.811 334.936)" fill="#C4C4C4"/>
<ellipse cx="808.503" cy="823.385" rx="0.540457" ry="0.720195" transform="rotate(-180 808.503 823.385)" fill="#C4C4C4"/>
<circle cx="477.684" cy="379.746" r="1" transform="rotate(-180 477.684 379.746)" fill="#C4C4C4"/>
<ellipse cx="1410.53" cy="939.116" rx="0.540457" ry="0.720195" transform="rotate(-180 1410.53 939.116)" fill="#C4C4C4"/>
<ellipse cx="534.249" cy="455.237" rx="0.540457" ry="0.720195" transform="rotate(-180 534.249 455.237)" fill="#C4C4C4"/>
<ellipse cx="601.362" cy="342.452" rx="0.540457" ry="0.720195" transform="rotate(-180 601.362 342.452)" fill="#C4C4C4"/>
<ellipse cx="504.928" cy="406.913" rx="0.540457" ry="0.720195" transform="rotate(-180 504.928 406.913)" fill="#C4C4C4"/>
<ellipse cx="511.792" cy="417.854" rx="0.540457" ry="0.720195" transform="rotate(-180 511.792 417.854)" fill="#C4C4C4"/>
<ellipse cx="691.651" cy="372.51" rx="0.540457" ry="0.720195" transform="rotate(-180 691.651 372.51)" fill="#C4C4C4"/>
<ellipse cx="1411.22" cy="944.975" rx="0.540457" ry="0.720195" transform="rotate(-180 1411.22 944.975)" fill="#C4C4C4"/>
<ellipse cx="545.014" cy="456.51" rx="0.540457" ry="0.720195" transform="rotate(-180 545.014 456.51)" fill="#C4C4C4"/>
<ellipse cx="809.561" cy="892.518" rx="0.540457" ry="0.720195" transform="rotate(-180 809.561 892.518)" fill="#C4C4C4"/>
<ellipse cx="801.065" cy="877.491" rx="0.540457" ry="0.720195" transform="rotate(-180 801.065 877.491)" fill="#C4C4C4"/>
<ellipse cx="418.667" cy="366.28" rx="0.540457" ry="0.720195" transform="rotate(-180 418.667 366.28)" fill="#C4C4C4"/>
<ellipse cx="608.799" cy="423.604" rx="0.540457" ry="0.720195" transform="rotate(-180 608.799 423.604)" fill="#C4C4C4"/>
<ellipse cx="455.155" cy="437.147" rx="0.540457" ry="0.720195" transform="rotate(-180 455.155 437.147)" fill="#C4C4C4"/>
<ellipse cx="439.901" cy="381.522" rx="0.540457" ry="0.720195" transform="rotate(-180 439.901 381.522)" fill="#C4C4C4"/>
<ellipse cx="482.436" cy="418.69" rx="0.540457" ry="0.720195" transform="rotate(-180 482.436 418.69)" fill="#C4C4C4"/>
<circle cx="538.789" cy="445.371" r="1.5" transform="rotate(-180 538.789 445.371)" fill="#C4C4C4"/>
<ellipse cx="447.311" cy="424.635" rx="0.540457" ry="0.720195" transform="rotate(-180 447.311 424.635)" fill="#C4C4C4"/>
<ellipse cx="534.667" cy="400.331" rx="0.540457" ry="0.720195" transform="rotate(-180 534.667 400.331)" fill="#C4C4C4"/>
<ellipse cx="573.831" cy="415.112" rx="0.540457" ry="0.720195" transform="rotate(-180 573.831 415.112)" fill="#C4C4C4"/>
<ellipse cx="286.085" cy="304.225" rx="0.540457" ry="0.720195" transform="rotate(-180 286.085 304.225)" fill="#C4C4C4"/>
<ellipse cx="764.747" cy="566.802" rx="0.540457" ry="0.720195" fill="#C4C4C4"/>
<ellipse cx="904.185" cy="669.06" rx="0.540457" ry="0.720195" fill="#C4C4C4"/>
<ellipse cx="927.966" cy="696.431" rx="0.540457" ry="0.720195" fill="#C4C4C4"/>
<ellipse cx="925.802" cy="722.357" rx="0.540457" ry="0.720195" fill="#C4C4C4"/>
<circle cx="866.234" cy="697.211" r="1.5" fill="#C4C4C4"/>
<ellipse cx="893.376" cy="720.916" rx="0.540457" ry="0.720195" fill="#C4C4C4"/>
<ellipse cx="717.15" cy="309.384" rx="0.540457" ry="0.720195" fill="#C4C4C4"/>
<ellipse cx="791.505" cy="569.388" rx="0.540457" ry="0.720195" fill="#C4C4C4"/>
<ellipse cx="768.138" cy="285.345" rx="0.540457" ry="0.720195" fill="#C4C4C4"/>
<ellipse cx="781.947" cy="563.38" rx="0.540457" ry="0.720195" fill="#C4C4C4"/>
<ellipse cx="769.201" cy="564.884" rx="0.540457" ry="0.720195" fill="#C4C4C4"/>
<ellipse cx="840.372" cy="618.986" rx="0.540457" ry="0.720195" fill="#C4C4C4"/>
<ellipse cx="686.345" cy="322.915" rx="0.540457" ry="0.720195" fill="#C4C4C4"/>
<ellipse rx="0.621692" ry="0.651363" transform="matrix(0.663973 0.747757 -0.535579 0.844485 620.275 186.14)" fill="#C4C4C4"/>
<ellipse rx="0.621692" ry="0.651363" transform="matrix(0.663973 0.747757 -0.535579 0.844485 656.138 183.159)" fill="#C4C4C4"/>
<circle r="1" transform="matrix(0.663973 0.747757 -0.535579 0.844485 601.144 125.498)" fill="#C4C4C4"/>
<ellipse rx="0.621692" ry="0.651363" transform="matrix(0.663973 0.747757 -0.535579 0.844485 716.08 233.679)" fill="#C4C4C4"/>
<ellipse rx="0.621692" ry="0.651363" transform="matrix(0.663973 0.747757 -0.535579 0.844485 732.763 81.0149)" fill="#C4C4C4"/>
<ellipse rx="0.621692" ry="0.651363" transform="matrix(0.663973 0.747757 -0.535579 0.844485 663.126 196.675)" fill="#C4C4C4"/>
<circle r="1" transform="matrix(0.663973 0.747757 -0.535579 0.844485 665.156 191.932)" fill="#C4C4C4"/>
<circle r="1" transform="matrix(0.663973 0.747757 -0.535579 0.844485 597.66 130.998)" fill="#C4C4C4"/>
<ellipse rx="0.621692" ry="0.651363" transform="matrix(0.663973 0.747757 -0.535579 0.844485 617.404 152.734)" fill="#C4C4C4"/>
<ellipse cx="1100.91" cy="139.001" rx="0.540457" ry="0.720195" fill="#C4C4C4"/>
<ellipse cx="1062" cy="166.369" rx="0.540457" ry="0.720195" fill="#C4C4C4"/>
<ellipse cx="1158.2" cy="13.685" rx="0.540457" ry="0.720195" fill="#C4C4C4"/>
<ellipse cx="1065.25" cy="54.021" rx="0.540457" ry="0.720195" fill="#C4C4C4"/>
<ellipse cx="813.392" cy="715.158" rx="0.540457" ry="0.720195" fill="#C4C4C4"/>
<ellipse cx="855.244" cy="608.47" rx="0.540457" ry="0.720195" fill="#C4C4C4"/>
<ellipse cx="141.412" cy="444.654" rx="0.540457" ry="0.720195" fill="#C4C4C4"/>
<ellipse cx="182.134" cy="406.908" rx="0.540457" ry="0.720195" fill="#C4C4C4"/>
<ellipse cx="76.2045" cy="392.509" rx="0.540457" ry="0.720195" fill="#C4C4C4"/>
<ellipse cx="135.662" cy="379.544" rx="0.540457" ry="0.720195" fill="#C4C4C4"/>
<circle cx="1088.73" cy="196.945" r="1" fill="#C4C4C4"/>
<circle cx="114.496" cy="467.688" r="1" fill="#C4C4C4"/>
<ellipse cx="8.10686" cy="453.009" rx="0.540457" ry="0.720195" fill="#C4C4C4"/>
<ellipse cx="67.56" cy="440.04" rx="0.540457" ry="0.720195" fill="#C4C4C4"/>
<ellipse cx="996.064" cy="82.8296" rx="0.540457" ry="0.720195" fill="#C4C4C4"/>
<ellipse cx="1049.02" cy="15.1304" rx="0.540457" ry="0.720195" fill="#C4C4C4"/>
<ellipse cx="943.095" cy="0.720195" rx="0.540457" ry="0.720195" fill="#C4C4C4"/>
<ellipse cx="704.216" cy="324.81" rx="0.540457" ry="0.720195" fill="#C4C4C4"/>
<ellipse cx="598.29" cy="310.404" rx="0.540457" ry="0.720195" fill="#C4C4C4"/>
<ellipse cx="657.736" cy="297.443" rx="0.540457" ry="0.720195" fill="#C4C4C4"/>
<ellipse cx="52.5756" cy="744.58" rx="0.540457" ry="0.720195" fill="#C4C4C4"/>
<ellipse cx="124.807" cy="716.018" rx="0.540457" ry="0.720195" transform="rotate(-180 124.807 716.018)" fill="#C4C4C4"/>
<ellipse cx="119.495" cy="722.03" rx="0.540457" ry="0.720195" transform="rotate(-180 119.495 722.03)" fill="#C4C4C4"/>
<ellipse cx="58.9439" cy="752.092" rx="0.540457" ry="0.720195" transform="rotate(-180 58.9439 752.092)" fill="#C4C4C4"/>
<ellipse cx="102.495" cy="759.608" rx="0.540457" ry="0.720195" transform="rotate(-180 102.495 759.608)" fill="#C4C4C4"/>
<ellipse cx="130.116" cy="714.518" rx="0.540457" ry="0.720195" transform="rotate(-180 130.116 714.518)" fill="#C4C4C4"/>
<ellipse cx="205.537" cy="684.462" rx="0.540457" ry="0.720195" fill="#C4C4C4"/>
<ellipse cx="99.4272" cy="727.56" rx="0.540457" ry="0.720195" fill="#C4C4C4"/>
<ellipse cx="158.872" cy="714.599" rx="0.540457" ry="0.720195" fill="#C4C4C4"/>
<ellipse cx="1122.53" cy="821.751" rx="0.540457" ry="0.720195" fill="#C4C4C4"/>
<ellipse cx="845.681" cy="745.236" rx="0.540457" ry="0.720195" fill="#C4C4C4"/>
<ellipse cx="830.682" cy="130.358" rx="0.540457" ry="0.720195" transform="rotate(-180 830.682 130.358)" fill="#C4C4C4"/>
<ellipse cx="894.775" cy="146.744" rx="0.540457" ry="0.720195" fill="#C4C4C4"/>
<ellipse cx="894.775" cy="153.939" rx="0.540457" ry="0.720195" fill="#C4C4C4"/>
<ellipse cx="905.583" cy="227.408" rx="0.540457" ry="0.720195" fill="#C4C4C4"/>
<ellipse cx="892.54" cy="387.72" rx="0.540457" ry="0.720195" fill="#C4C4C4"/>
<ellipse cx="840.372" cy="680.607" rx="0.540457" ry="0.720195" fill="#C4C4C4"/>
<ellipse cx="25.4076" cy="238.38" rx="0.540457" ry="0.720195" fill="#C4C4C4"/>
<ellipse cx="36.2162" cy="238.38" rx="0.540457" ry="0.720195" fill="#C4C4C4"/>
<ellipse cx="8.10686" cy="248.474" rx="0.540457" ry="0.720195" fill="#C4C4C4"/>
<ellipse cx="40.5405" cy="247.033" rx="0.540457" ry="0.720195" fill="#C4C4C4"/>
<ellipse cx="30.81" cy="274.4" rx="0.540457" ry="0.720195" fill="#C4C4C4"/>
<ellipse cx="16.7553" cy="255.673" rx="0.540457" ry="0.720195" fill="#C4C4C4"/>
<ellipse cx="0.540457" cy="203.818" rx="0.540457" ry="0.720195" fill="#C4C4C4"/>
<ellipse cx="65.3959" cy="228.302" rx="0.540457" ry="0.720195" fill="#C4C4C4"/>
<ellipse cx="94.5834" cy="288.806" rx="0.540457" ry="0.720195" fill="#C4C4C4"/>
<ellipse cx="38.3764" cy="252.791" rx="0.540457" ry="0.720195" fill="#C4C4C4"/>
<ellipse cx="43.7787" cy="313.29" rx="0.540457" ry="0.720195" fill="#C4C4C4"/>
<ellipse cx="3.78655" cy="303.205" rx="0.540457" ry="0.720195" fill="#C4C4C4"/>
<ellipse rx="0.642965" ry="0.630373" transform="matrix(0.572958 0.819585 -0.627327 0.778756 84.4104 114.182)" fill="#C4C4C4"/>
<ellipse rx="0.642965" ry="0.630373" transform="matrix(0.572958 0.819585 -0.627327 0.778756 91.7776 124.729)" fill="#C4C4C4"/>
<ellipse rx="0.642965" ry="0.630373" transform="matrix(0.572958 0.819585 -0.627327 0.778756 93.2464 126.83)" fill="#C4C4C4"/>
<ellipse rx="0.642965" ry="0.630373" transform="matrix(0.572958 0.819585 -0.627327 0.778756 114.309 140.061)" fill="#C4C4C4"/>
<ellipse rx="0.642965" ry="0.630373" transform="matrix(0.572958 0.819585 -0.627327 0.778756 68.3167 144.002)" fill="#C4C4C4"/>
<ellipse rx="0.642965" ry="0.630373" transform="matrix(0.572958 0.819585 -0.627327 0.778756 69.0237 117.537)" fill="#C4C4C4"/>
<ellipse rx="0.642965" ry="0.630373" transform="matrix(0.572958 0.819585 -0.627327 0.778756 86.4417 66.3851)" fill="#C4C4C4"/>
<ellipse rx="0.642965" ry="0.630373" transform="matrix(0.572958 0.819585 -0.627327 0.778756 117.203 146.311)" fill="#C4C4C4"/>
<ellipse rx="0.642965" ry="0.630373" transform="matrix(0.572958 0.819585 -0.627327 0.778756 103.879 216.006)" fill="#C4C4C4"/>
<ellipse rx="0.642965" ry="0.630373" transform="matrix(0.572958 0.819585 -0.627327 0.778756 85.3401 136.651)" fill="#C4C4C4"/>
<ellipse rx="0.642965" ry="0.630373" transform="matrix(0.572958 0.819585 -0.627327 0.778756 55.805 183.162)" fill="#C4C4C4"/>
<ellipse rx="0.642965" ry="0.630373" transform="matrix(0.572958 0.819585 -0.627327 0.778756 34.0784 137.283)" fill="#C4C4C4"/>
<ellipse cx="489.111" cy="140.443" rx="0.540457" ry="0.720195" fill="#C4C4C4"/>
<ellipse cx="583.154" cy="182.212" rx="0.540457" ry="0.720195" fill="#C4C4C4"/>
<ellipse cx="575.587" cy="172.126" rx="0.540457" ry="0.720195" fill="#C4C4C4"/>
<ellipse cx="539.919" cy="137.56" rx="0.540457" ry="0.720195" fill="#C4C4C4"/>
<ellipse cx="518.302" cy="127.482" rx="0.540457" ry="0.720195" fill="#C4C4C4"/>
<ellipse cx="550.728" cy="126.033" rx="0.540457" ry="0.720195" fill="#C4C4C4"/>
<ellipse cx="540.997" cy="153.408" rx="0.540457" ry="0.720195" fill="#C4C4C4"/>
<ellipse cx="526.951" cy="134.677" rx="0.540457" ry="0.720195" fill="#C4C4C4"/>
<ellipse cx="575.587" cy="107.31" rx="0.540457" ry="0.720195" fill="#C4C4C4"/>
<ellipse cx="604.775" cy="167.81" rx="0.540457" ry="0.720195" fill="#C4C4C4"/>
<ellipse cx="548.568" cy="131.798" rx="0.540457" ry="0.720195" fill="#C4C4C4"/>
<ellipse cx="553.97" cy="192.294" rx="0.540457" ry="0.720195" fill="#C4C4C4"/>
<circle cx="514.438" cy="182.492" r="1" fill="#C4C4C4"/>
<ellipse cx="1399.24" cy="844.791" rx="0.540457" ry="0.720195" fill="#C4C4C4"/>
<ellipse cx="1323.58" cy="885.123" rx="0.540457" ry="0.720195" fill="#C4C4C4"/>
<ellipse cx="1338.72" cy="807.341" rx="0.540457" ry="0.720195" fill="#C4C4C4"/>
<ellipse cx="1304.13" cy="831.826" rx="0.540457" ry="0.720195" fill="#C4C4C4"/>
<ellipse cx="680.158" cy="538.876" rx="0.540457" ry="0.720195" fill="#C4C4C4"/>
<ellipse cx="843.38" cy="668.509" rx="0.540457" ry="0.720195" fill="#C4C4C4"/>
<ellipse cx="683.404" cy="623.857" rx="0.540457" ry="0.720195" fill="#C4C4C4"/>
<ellipse cx="682.318" cy="541.763" rx="0.540457" ry="0.720195" fill="#C4C4C4"/>
<ellipse cx="638.001" cy="521.591" rx="0.540457" ry="0.720195" fill="#C4C4C4"/>
<ellipse cx="567.747" cy="557.599" rx="0.540457" ry="0.720195" fill="#C4C4C4"/>
<ellipse cx="728.798" cy="687.236" rx="0.540457" ry="0.720195" fill="#C4C4C4"/>
<ellipse cx="687.728" cy="620.974" rx="0.540457" ry="0.720195" fill="#C4C4C4"/>
<ellipse cx="586.119" cy="528.787" rx="0.540457" ry="0.720195" fill="#C4C4C4"/>
<ellipse cx="696.372" cy="632.498" rx="0.540457" ry="0.720195" fill="#C4C4C4"/>
<ellipse cx="287.849" cy="786.744" rx="0.540457" ry="0.720195" fill="#C4C4C4"/>
<ellipse cx="44.392" cy="981.173" rx="0.540457" ry="0.720195" fill="#C4C4C4"/>
<ellipse cx="198.064" cy="910.783" rx="0.540457" ry="0.720195" fill="#C4C4C4"/>
<ellipse cx="176.447" cy="930.955" rx="0.540457" ry="0.720195" fill="#C4C4C4"/>
<ellipse cx="136.455" cy="920.869" rx="0.540457" ry="0.720195" fill="#C4C4C4"/>
<ellipse cx="440.267" cy="851.552" rx="0.540457" ry="0.720195" fill="#C4C4C4"/>
<circle cx="494.227" cy="750.332" r="1.5" fill="#C4C4C4"/>
<ellipse cx="526.736" cy="883.244" rx="0.540457" ry="0.720195" fill="#C4C4C4"/>
<ellipse cx="505.119" cy="903.416" rx="0.540457" ry="0.720195" fill="#C4C4C4"/>
<circle cx="715.133" cy="345.762" r="1" transform="rotate(-180 715.133 345.762)" fill="#C4C4C4"/>
<ellipse cx="1360.33" cy="872.158" rx="0.540457" ry="0.720195" fill="#C4C4C4"/>
<ellipse cx="1152.67" cy="163.599" rx="0.540457" ry="0.720195" fill="#C4C4C4"/>
<ellipse cx="1159.04" cy="159.974" rx="0.540457" ry="0.720195" fill="#C4C4C4"/>
<ellipse cx="1156.92" cy="159.095" rx="0.540457" ry="0.720195" fill="#C4C4C4"/>
<ellipse cx="1182.42" cy="192.158" rx="0.540457" ry="0.720195" fill="#C4C4C4"/>
<ellipse cx="1186.66" cy="195.162" rx="0.540457" ry="0.720195" fill="#C4C4C4"/>
<circle cx="1172.98" cy="160.754" r="1.5" fill="#C4C4C4"/>
<ellipse cx="1165.53" cy="145.564" rx="0.540457" ry="0.720195" fill="#C4C4C4"/>
<ellipse cx="1124.69" cy="166.369" rx="0.540457" ry="0.720195" fill="#C4C4C4"/>
<ellipse cx="1094.52" cy="698.755" rx="0.540457" ry="0.720195" fill="#C4C4C4"/>
<ellipse cx="1100.89" cy="695.13" rx="0.540457" ry="0.720195" fill="#C4C4C4"/>
<ellipse cx="1098.77" cy="694.251" rx="0.540457" ry="0.720195" fill="#C4C4C4"/>
<ellipse cx="1124.26" cy="727.314" rx="0.540457" ry="0.720195" fill="#C4C4C4"/>
<ellipse cx="1128.51" cy="730.318" rx="0.540457" ry="0.720195" fill="#C4C4C4"/>
<circle cx="1114.32" cy="695.41" r="1" fill="#C4C4C4"/>
<ellipse cx="1107.38" cy="680.72" rx="0.540457" ry="0.720195" fill="#C4C4C4"/>
<ellipse cx="1066.54" cy="701.525" rx="0.540457" ry="0.720195" fill="#C4C4C4"/>
<ellipse cx="1103.52" cy="534.755" rx="0.540457" ry="0.720195" fill="#C4C4C4"/>
<ellipse cx="1109.89" cy="531.13" rx="0.540457" ry="0.720195" fill="#C4C4C4"/>
<ellipse cx="1107.77" cy="530.251" rx="0.540457" ry="0.720195" fill="#C4C4C4"/>
<ellipse cx="1133.26" cy="563.314" rx="0.540457" ry="0.720195" fill="#C4C4C4"/>
<ellipse cx="1137.51" cy="566.318" rx="0.540457" ry="0.720195" fill="#C4C4C4"/>
<ellipse cx="1122.86" cy="531.13" rx="0.540457" ry="0.720195" fill="#C4C4C4"/>
<ellipse cx="1116.38" cy="516.72" rx="0.540457" ry="0.720195" fill="#C4C4C4"/>
<ellipse cx="1075.54" cy="537.525" rx="0.540457" ry="0.720195" fill="#C4C4C4"/>
<ellipse cx="877.165" cy="779.974" rx="0.540457" ry="0.720195" fill="#C4C4C4"/>
<ellipse cx="882.568" cy="785.736" rx="0.540457" ry="0.720195" fill="#C4C4C4"/>
<ellipse cx="912.833" cy="774.212" rx="0.540457" ry="0.720195" fill="#C4C4C4"/>
<ellipse cx="897.701" cy="798.697" rx="0.540457" ry="0.720195" fill="#C4C4C4"/>
<ellipse cx="893.376" cy="785.736" rx="0.540457" ry="0.720195" fill="#C4C4C4"/>
<ellipse cx="909.591" cy="815.99" rx="0.540457" ry="0.720195" fill="#C4C4C4"/>
<ellipse cx="942.017" cy="759.802" rx="0.540457" ry="0.720195" fill="#C4C4C4"/>
<ellipse cx="949.583" cy="761.248" rx="0.540457" ry="0.720195" fill="#C4C4C4"/>
<ellipse cx="382.54" cy="563.892" rx="0.540457" ry="0.720195" fill="#C4C4C4"/>
<circle cx="388.402" cy="569.934" r="1" fill="#C4C4C4"/>
<ellipse cx="418.208" cy="558.13" rx="0.540457" ry="0.720195" fill="#C4C4C4"/>
<ellipse cx="403.076" cy="582.615" rx="0.540457" ry="0.720195" fill="#C4C4C4"/>
<ellipse cx="398.751" cy="569.654" rx="0.540457" ry="0.720195" fill="#C4C4C4"/>
<ellipse cx="414.966" cy="599.908" rx="0.540457" ry="0.720195" fill="#C4C4C4"/>
<ellipse cx="447.392" cy="543.72" rx="0.540457" ry="0.720195" fill="#C4C4C4"/>
<ellipse cx="454.958" cy="545.166" rx="0.540457" ry="0.720195" fill="#C4C4C4"/>
<ellipse cx="758.54" cy="402.892" rx="0.540457" ry="0.720195" fill="#C4C4C4"/>
<ellipse cx="763.943" cy="408.654" rx="0.540457" ry="0.720195" fill="#C4C4C4"/>
<ellipse cx="794.208" cy="397.13" rx="0.540457" ry="0.720195" fill="#C4C4C4"/>
<ellipse cx="779.076" cy="421.615" rx="0.540457" ry="0.720195" fill="#C4C4C4"/>
<ellipse cx="774.751" cy="408.654" rx="0.540457" ry="0.720195" fill="#C4C4C4"/>
<ellipse cx="790.966" cy="438.908" rx="0.540457" ry="0.720195" fill="#C4C4C4"/>
<ellipse cx="823.392" cy="382.72" rx="0.540457" ry="0.720195" fill="#C4C4C4"/>
<ellipse cx="830.958" cy="384.165" rx="0.540457" ry="0.720195" fill="#C4C4C4"/>
<ellipse cx="767.99" cy="651.775" rx="0.540457" ry="0.720195" fill="#C4C4C4"/>
<ellipse cx="794.697" cy="641.533" rx="0.540457" ry="0.720195" fill="#C4C4C4"/>
<ellipse cx="772.314" cy="648.904" rx="0.540457" ry="0.720195" fill="#C4C4C4"/>
<ellipse cx="787.259" cy="638.525" rx="0.540457" ry="0.720195" fill="#C4C4C4"/>
<ellipse cx="780.966" cy="660.419" rx="0.540457" ry="0.720195" fill="#C4C4C4"/>
<ellipse cx="819.595" cy="641.146" rx="0.540457" ry="0.720195" fill="#C4C4C4"/>
<ellipse cx="780.685" cy="668.509" rx="0.540457" ry="0.720195" fill="#C4C4C4"/>
<ellipse cx="679.54" cy="465.97" rx="0.540457" ry="0.720195" fill="#C4C4C4"/>
<ellipse cx="706.247" cy="455.728" rx="0.540457" ry="0.720195" fill="#C4C4C4"/>
<ellipse cx="683.865" cy="463.099" rx="0.540457" ry="0.720195" fill="#C4C4C4"/>
<ellipse cx="698.81" cy="452.72" rx="0.540457" ry="0.720195" fill="#C4C4C4"/>
<ellipse cx="692.517" cy="474.615" rx="0.540457" ry="0.720195" fill="#C4C4C4"/>
<ellipse cx="731.146" cy="455.341" rx="0.540457" ry="0.720195" fill="#C4C4C4"/>
<ellipse cx="692.236" cy="482.705" rx="0.540457" ry="0.720195" fill="#C4C4C4"/>
<ellipse cx="95.5405" cy="643.837" rx="0.540457" ry="0.720195" fill="#C4C4C4"/>
<ellipse cx="167.564" cy="614.998" rx="0.748965" ry="0.998047" transform="rotate(-180 167.564 614.998)" fill="#C4C4C4"/>
<ellipse cx="162.46" cy="621.288" rx="0.540457" ry="0.720195" transform="rotate(-180 162.46 621.288)" fill="#C4C4C4"/>
<ellipse cx="101.909" cy="651.35" rx="0.540457" ry="0.720195" transform="rotate(-180 101.909 651.35)" fill="#C4C4C4"/>
<ellipse cx="145.46" cy="658.866" rx="0.540457" ry="0.720195" transform="rotate(-180 145.46 658.866)" fill="#C4C4C4"/>
<ellipse cx="173.081" cy="613.776" rx="0.540457" ry="0.720195" transform="rotate(-180 173.081 613.776)" fill="#C4C4C4"/>
<ellipse cx="248.501" cy="583.72" rx="0.540457" ry="0.720195" fill="#C4C4C4"/>
<ellipse cx="142.392" cy="626.818" rx="0.540457" ry="0.720195" fill="#C4C4C4"/>
<ellipse cx="201.837" cy="613.857" rx="0.540457" ry="0.720195" fill="#C4C4C4"/>
<ellipse cx="370.54" cy="709.72" rx="0.540457" ry="0.720195" fill="#C4C4C4"/>
<ellipse cx="656.54" cy="802.72" rx="0.540457" ry="0.720195" fill="#C4C4C4"/>
<ellipse cx="592.607" cy="592.173" rx="0.540457" ry="0.720195" fill="#C4C4C4"/>
<ellipse cx="603.415" cy="592.173" rx="0.540457" ry="0.720195" fill="#C4C4C4"/>
<ellipse cx="605.576" cy="592.173" rx="0.540457" ry="0.720195" fill="#C4C4C4"/>
<ellipse cx="607.736" cy="612.341" rx="0.540457" ry="0.720195" fill="#C4C4C4"/>
<ellipse cx="546.126" cy="615.212" rx="0.540457" ry="0.720195" fill="#C4C4C4"/>
<ellipse cx="632.595" cy="646.904" rx="0.540457" ry="0.720195" fill="#C4C4C4"/>
<ellipse cx="596.927" cy="612.341" rx="0.540457" ry="0.720195" fill="#C4C4C4"/>
<ellipse cx="607.736" cy="600.814" rx="0.540457" ry="0.720195" fill="#C4C4C4"/>
<ellipse cx="598.013" cy="628.177" rx="0.540457" ry="0.720195" fill="#C4C4C4"/>
<ellipse cx="605.576" cy="606.576" rx="0.540457" ry="0.720195" fill="#C4C4C4"/>
<ellipse cx="570.986" cy="656.986" rx="0.540457" ry="0.720195" fill="#C4C4C4"/>
<ellipse cx="1249.02" cy="261.72" rx="0.540457" ry="0.720195" fill="#C4C4C4"/>
<ellipse cx="1259.83" cy="261.72" rx="0.540457" ry="0.720195" fill="#C4C4C4"/>
<ellipse cx="1261.99" cy="261.72" rx="0.540457" ry="0.720195" fill="#C4C4C4"/>
<ellipse cx="1264.15" cy="281.888" rx="0.540457" ry="0.720195" fill="#C4C4C4"/>
<ellipse cx="1202.54" cy="284.759" rx="0.540457" ry="0.720195" fill="#C4C4C4"/>
<ellipse cx="1289.01" cy="316.451" rx="0.540457" ry="0.720195" fill="#C4C4C4"/>
<circle cx="1254.3" cy="282.668" r="1.5" fill="#C4C4C4"/>
<circle cx="1264.61" cy="270.641" r="1" fill="#C4C4C4"/>
<ellipse cx="1254.43" cy="297.724" rx="0.540457" ry="0.720195" fill="#C4C4C4"/>
<ellipse cx="1261.99" cy="276.123" rx="0.540457" ry="0.720195" fill="#C4C4C4"/>
<ellipse cx="1227.4" cy="326.533" rx="0.540457" ry="0.720195" fill="#C4C4C4"/>
</svg>
