<svg width="127" height="50" viewBox="0 0 127 50" fill="none" xmlns="http://www.w3.org/2000/svg">
<path d="M26.0471 36.956C25.5191 37.388 24.8711 37.712 24.1031 37.928C23.3591 38.144 22.5671 38.252 21.7271 38.252C19.6151 38.252 17.9831 37.7 16.8311 36.596C15.6791 35.492 15.1031 33.884 15.1031 31.772V22.52H11.9351V18.92H15.1031V14.528H19.6031V18.92H24.7511V22.52H19.6031V31.664C19.6031 32.6 19.8311 33.32 20.2871 33.824C20.7431 34.304 21.4031 34.544 22.2671 34.544C23.2751 34.544 24.1151 34.28 24.7871 33.752L26.0471 36.956ZM47.1881 28.496C47.1881 28.808 47.1641 29.252 47.1161 29.828H32.0321C32.2961 31.244 32.9801 32.372 34.0841 33.212C35.2121 34.028 36.6041 34.436 38.2601 34.436C40.3721 34.436 42.1121 33.74 43.4801 32.348L45.8921 35.12C45.0281 36.152 43.9361 36.932 42.6161 37.46C41.2961 37.988 39.8081 38.252 38.1521 38.252C36.0401 38.252 34.1801 37.832 32.5721 36.992C30.9641 36.152 29.7161 34.988 28.8281 33.5C27.9641 31.988 27.5321 30.284 27.5321 28.388C27.5321 26.516 27.9521 24.836 28.7921 23.348C29.6561 21.836 30.8441 20.66 32.3561 19.82C33.8681 18.98 35.5721 18.56 37.4681 18.56C39.3401 18.56 41.0081 18.98 42.4721 19.82C43.9601 20.636 45.1121 21.8 45.9281 23.312C46.7681 24.8 47.1881 26.528 47.1881 28.496ZM37.4681 22.16C36.0281 22.16 34.8041 22.592 33.7961 23.456C32.8121 24.296 32.2121 25.424 31.9961 26.84H42.9041C42.7121 25.448 42.1241 24.32 41.1401 23.456C40.1561 22.592 38.9321 22.16 37.4681 22.16ZM58.3273 18.56C61.1593 18.56 63.3193 19.244 64.8073 20.612C66.3193 21.956 67.0753 23.996 67.0753 26.732V38H62.8273V35.66C62.2753 36.5 61.4833 37.148 60.4513 37.604C59.4433 38.036 58.2193 38.252 56.7793 38.252C55.3393 38.252 54.0793 38.012 52.9993 37.532C51.9193 37.028 51.0793 36.344 50.4793 35.48C49.9033 34.592 49.6153 33.596 49.6153 32.492C49.6153 30.764 50.2513 29.384 51.5233 28.352C52.8193 27.296 54.8473 26.768 57.6073 26.768H62.5753V26.48C62.5753 25.136 62.1673 24.104 61.3513 23.384C60.5593 22.664 59.3713 22.304 57.7873 22.304C56.7073 22.304 55.6393 22.472 54.5833 22.808C53.5513 23.144 52.6753 23.612 51.9553 24.212L50.1913 20.936C51.1993 20.168 52.4113 19.58 53.8273 19.172C55.2433 18.764 56.7433 18.56 58.3273 18.56ZM57.7153 34.976C58.8433 34.976 59.8393 34.724 60.7033 34.22C61.5913 33.692 62.2153 32.948 62.5753 31.988V29.756H57.9313C55.3393 29.756 54.0433 30.608 54.0433 32.312C54.0433 33.128 54.3673 33.776 55.0153 34.256C55.6633 34.736 56.5633 34.976 57.7153 34.976ZM81.8462 38.252C79.8542 38.252 78.0662 37.832 76.4822 36.992C74.8982 36.152 73.6622 34.988 72.7742 33.5C71.8862 31.988 71.4422 30.284 71.4422 28.388C71.4422 26.492 71.8862 24.8 72.7742 23.312C73.6622 21.824 74.8862 20.66 76.4462 19.82C78.0302 18.98 79.8302 18.56 81.8462 18.56C83.7422 18.56 85.3982 18.944 86.8142 19.712C88.2542 20.48 89.3342 21.584 90.0542 23.024L86.5982 25.04C86.0462 24.152 85.3502 23.492 84.5102 23.06C83.6942 22.604 82.7942 22.376 81.8102 22.376C80.1302 22.376 78.7382 22.928 77.6342 24.032C76.5302 25.112 75.9782 26.564 75.9782 28.388C75.9782 30.212 76.5182 31.676 77.5982 32.78C78.7022 33.86 80.1062 34.4 81.8102 34.4C82.7942 34.4 83.6942 34.184 84.5102 33.752C85.3502 33.296 86.0462 32.624 86.5982 31.736L90.0542 33.752C89.3102 35.192 88.2182 36.308 86.7782 37.1C85.3622 37.868 83.7182 38.252 81.8462 38.252ZM104.676 18.56C107.1 18.56 109.044 19.268 110.508 20.684C111.972 22.1 112.704 24.2 112.704 26.984V38H108.204V27.56C108.204 25.88 107.808 24.62 107.016 23.78C106.224 22.916 105.096 22.484 103.632 22.484C101.976 22.484 100.668 22.988 99.7084 23.996C98.7484 24.98 98.2684 26.408 98.2684 28.28V38H93.7684V11.288H98.2684V21.008C99.0124 20.216 99.9244 19.616 101.004 19.208C102.108 18.776 103.332 18.56 104.676 18.56Z" fill="white"/>
<rect x="0.25" y="0.25" width="126.5" height="49.5" stroke="white" stroke-width="0.5"/>
</svg>
