<svg width="100" height="50" viewBox="0 0 100 50" fill="none" xmlns="http://www.w3.org/2000/svg">
<path d="M43.1255 18.776L36.0335 38H31.7135L26.7455 24.752L21.7055 38H17.3855L10.3295 18.776H14.5775L19.6535 32.96L24.9455 18.776H28.7255L33.9095 33.032L39.1295 18.776H43.1255ZM63.7642 28.496C63.7642 28.808 63.7402 29.252 63.6922 29.828H48.6082C48.8722 31.244 49.5562 32.372 50.6602 33.212C51.7882 34.028 53.1802 34.436 54.8362 34.436C56.9482 34.436 58.6882 33.74 60.0562 32.348L62.4682 35.12C61.6042 36.152 60.5122 36.932 59.1922 37.46C57.8722 37.988 56.3842 38.252 54.7282 38.252C52.6162 38.252 50.7562 37.832 49.1482 36.992C47.5402 36.152 46.2922 34.988 45.4042 33.5C44.5402 31.988 44.1082 30.284 44.1082 28.388C44.1082 26.516 44.5282 24.836 45.3682 23.348C46.2322 21.836 47.4202 20.66 48.9322 19.82C50.4442 18.98 52.1482 18.56 54.0442 18.56C55.9162 18.56 57.5842 18.98 59.0482 19.82C60.5362 20.636 61.6882 21.8 62.5042 23.312C63.3442 24.8 63.7642 26.528 63.7642 28.496ZM54.0442 22.16C52.6042 22.16 51.3802 22.592 50.3722 23.456C49.3882 24.296 48.7882 25.424 48.5722 26.84H59.4802C59.2882 25.448 58.7002 24.32 57.7162 23.456C56.7322 22.592 55.5082 22.16 54.0442 22.16ZM78.7428 18.56C80.6148 18.56 82.2828 18.968 83.7468 19.784C85.2348 20.6 86.3988 21.752 87.2388 23.24C88.0788 24.728 88.4988 26.444 88.4988 28.388C88.4988 30.332 88.0788 32.06 87.2388 33.572C86.3988 35.06 85.2348 36.212 83.7468 37.028C82.2828 37.844 80.6148 38.252 78.7428 38.252C77.4228 38.252 76.2108 38.024 75.1068 37.568C74.0268 37.112 73.1148 36.428 72.3708 35.516V38H68.0868V11.288H72.5868V21.116C73.3548 20.276 74.2548 19.64 75.2868 19.208C76.3428 18.776 77.4948 18.56 78.7428 18.56ZM78.2388 34.4C79.8948 34.4 81.2508 33.848 82.3068 32.744C83.3868 31.64 83.9268 30.188 83.9268 28.388C83.9268 26.588 83.3868 25.136 82.3068 24.032C81.2508 22.928 79.8948 22.376 78.2388 22.376C77.1588 22.376 76.1868 22.628 75.3228 23.132C74.4588 23.612 73.7748 24.308 73.2708 25.22C72.7668 26.132 72.5148 27.188 72.5148 28.388C72.5148 29.588 72.7668 30.644 73.2708 31.556C73.7748 32.468 74.4588 33.176 75.3228 33.68C76.1868 34.16 77.1588 34.4 78.2388 34.4Z" fill="white"/>
<rect x="0.25" y="0.25" width="99.5" height="49.5" stroke="white" stroke-width="0.5"/>
</svg>
