<svg width="105" height="50" viewBox="0 0 105 50" fill="none" xmlns="http://www.w3.org/2000/svg">
<path d="M43.7447 18.776L36.6527 38H32.3327L27.3647 24.752L22.3247 38H18.0047L10.9487 18.776H15.1967L20.2727 32.96L25.5647 18.776H29.3447L34.5287 33.032L39.7487 18.776H43.7447ZM46.8387 18.776H51.3387V38H46.8387V18.776ZM49.1067 15.608C48.2907 15.608 47.6067 15.356 47.0547 14.852C46.5027 14.324 46.2267 13.676 46.2267 12.908C46.2267 12.14 46.5027 11.504 47.0547 11C47.6067 10.472 48.2907 10.208 49.1067 10.208C49.9227 10.208 50.6067 10.46 51.1587 10.964C51.7107 11.444 51.9867 12.056 51.9867 12.8C51.9867 13.592 51.7107 14.264 51.1587 14.816C50.6307 15.344 49.9467 15.608 49.1067 15.608ZM68.801 36.956C68.273 37.388 67.625 37.712 66.857 37.928C66.113 38.144 65.321 38.252 64.481 38.252C62.369 38.252 60.737 37.7 59.585 36.596C58.433 35.492 57.857 33.884 57.857 31.772V22.52H54.689V18.92H57.857V14.528H62.357V18.92H67.505V22.52H62.357V31.664C62.357 32.6 62.585 33.32 63.041 33.824C63.497 34.304 64.157 34.544 65.021 34.544C66.029 34.544 66.869 34.28 67.541 33.752L68.801 36.956ZM83.4108 18.56C85.8348 18.56 87.7788 19.268 89.2428 20.684C90.7068 22.1 91.4388 24.2 91.4388 26.984V38H86.9388V27.56C86.9388 25.88 86.5428 24.62 85.7508 23.78C84.9588 22.916 83.8308 22.484 82.3668 22.484C80.7108 22.484 79.4028 22.988 78.4428 23.996C77.4828 24.98 77.0028 26.408 77.0028 28.28V38H72.5028V11.288H77.0028V21.008C77.7468 20.216 78.6588 19.616 79.7388 19.208C80.8428 18.776 82.0668 18.56 83.4108 18.56Z" fill="white"/>
<rect x="0.25" y="0.25" width="104.5" height="49.5" stroke="white" stroke-width="0.5"/>
</svg>
